<?xml version="1.0" encoding="UTF-8" standalone="no"?>
<!-- Created with Inkscape (http://www.inkscape.org/) -->

<svg
   xmlns:dc="http://purl.org/dc/elements/1.1/"
   xmlns:cc="http://creativecommons.org/ns#"
   xmlns:rdf="http://www.w3.org/1999/02/22-rdf-syntax-ns#"
   xmlns:svg="http://www.w3.org/2000/svg"
   xmlns="http://www.w3.org/2000/svg"
   xmlns:xlink="http://www.w3.org/1999/xlink"
   xmlns:sodipodi="http://sodipodi.sourceforge.net/DTD/sodipodi-0.dtd"
   xmlns:inkscape="http://www.inkscape.org/namespaces/inkscape"
   width="210mm"
   height="297mm"
   id="svg2"
   version="1.1"
   inkscape:version="0.48.1 "
   sodipodi:docname="Documento nuevo 1">
  <defs
     id="defs4">
    <linearGradient
       id="linearGradient3762">
      <stop
         style="stop-color:#ffa467;stop-opacity:1;"
         offset="0"
         id="stop3764" />
      <stop
         id="stop3774"
         offset="0.25"
         style="stop-color:#ff9955;stop-opacity:1;" />
      <stop
         id="stop3772"
         offset="0.5"
         style="stop-color:#e68646;stop-opacity:1;" />
      <stop
         style="stop-color:#bf733f;stop-opacity:1;"
         offset="1"
         id="stop3766" />
    </linearGradient>
    <filter
       inkscape:collect="always"
       id="filter3967"
       x="-0.022944187"
       width="1.0458884"
       y="-0.17310305"
       height="1.3462061">
      <feGaussianBlur
         inkscape:collect="always"
         stdDeviation="4.9498443"
         id="feGaussianBlur3969" />
    </filter>
    <filter
       inkscape:collect="always"
       id="filter3975"
       x="-0.022923755"
       width="1.0458475"
       y="-0.15479313"
       height="1.3095863">
      <feGaussianBlur
         inkscape:collect="always"
         stdDeviation="4.9498443"
         id="feGaussianBlur3977" />
    </filter>
    <filter
       inkscape:collect="always"
       id="filter3979"
       x="-0.022923755"
       width="1.0458475"
       y="-0.15479313"
       height="1.3095863">
      <feGaussianBlur
         inkscape:collect="always"
         stdDeviation="4.9498443"
         id="feGaussianBlur3981" />
    </filter>
    <filter
       inkscape:collect="always"
       id="filter4047"
       x="-0.025768778"
       width="1.0515376"
       y="-0.17529471"
       height="1.3505894">
      <feGaussianBlur
         inkscape:collect="always"
         stdDeviation="5.3109674"
         id="feGaussianBlur4049" />
    </filter>
    <filter
       inkscape:collect="always"
       id="filter4051"
       x="-0.025768778"
       width="1.0515376"
       y="-0.17529471"
       height="1.3505894">
      <feGaussianBlur
         inkscape:collect="always"
         stdDeviation="5.3109674"
         id="feGaussianBlur4053" />
    </filter>
    <filter
       inkscape:collect="always"
       id="filter4055"
       x="-0.024350364"
       width="1.0487007"
       y="-0.18211752"
       height="1.364235">
      <feGaussianBlur
         inkscape:collect="always"
         stdDeviation="5.3109674"
         id="feGaussianBlur4057" />
    </filter>
    <filter
       inkscape:collect="always"
       id="filter4059"
       x="-0.024350364"
       width="1.0487007"
       y="-0.18211752"
       height="1.364235">
      <feGaussianBlur
         inkscape:collect="always"
         stdDeviation="5.3109674"
         id="feGaussianBlur4061" />
    </filter>
    <radialGradient
       inkscape:collect="always"
       xlink:href="#linearGradient3762"
       id="radialGradient4729"
       gradientUnits="userSpaceOnUse"
       gradientTransform="matrix(0.89784883,0,0,0.89784883,277.88179,231.91659)"
       cx="183.76456"
       cy="283.75003"
       fx="183.76456"
       fy="283.75003"
       r="293.34384" />
    <filter
       inkscape:collect="always"
       id="filter4839">
      <feGaussianBlur
         inkscape:collect="always"
         stdDeviation="3.0964769"
         id="feGaussianBlur4841" />
    </filter>
    <filter
       inkscape:collect="always"
       id="filter4843">
      <feGaussianBlur
         inkscape:collect="always"
         stdDeviation="3.0964769"
         id="feGaussianBlur4845" />
    </filter>
  </defs>
  <sodipodi:namedview
     id="base"
     pagecolor="#ffffff"
     bordercolor="#666666"
     borderopacity="1.0"
     inkscape:pageopacity="0.0"
     inkscape:pageshadow="2"
     inkscape:zoom="0.36708984"
     inkscape:cx="371.07443"
     inkscape:cy="498.94833"
     inkscape:document-units="px"
     inkscape:current-layer="layer1"
     showgrid="false"
     inkscape:window-width="1366"
     inkscape:window-height="706"
     inkscape:window-x="-8"
     inkscape:window-y="-8"
     inkscape:window-maximized="1" />
  <metadata
     id="metadata7">
    <rdf:RDF>
      <cc:Work
         rdf:about="">
        <dc:format>image/svg+xml</dc:format>
        <dc:type
           rdf:resource="http://purl.org/dc/dcmitype/StillImage" />
        <dc:title></dc:title>
      </cc:Work>
    </rdf:RDF>
  </metadata>
  <g
     inkscape:label="Capa 1"
     inkscape:groupmode="layer"
     id="layer1">
    <path
       sodipodi:type="arc"
       style="fill:#ffffff;fill-rule:evenodd;stroke:#000000;stroke-width:1px;stroke-linecap:butt;stroke-linejoin:miter;stroke-opacity:1"
       id="path4849"
       sodipodi:cx="32.008514"
       sodipodi:cy="872.5697"
       sodipodi:rx="2.0430965"
       sodipodi:ry="1.3620644"
       d="m 34.051611,872.5697 a 2.0430965,1.3620644 0 1 1 -4.086193,0 2.0430965,1.3620644 0 1 1 4.086193,0 z" />
    <path
       id="path5115"
       d="M 255.09375 131.40625 C 254.71796 131.43922 254.29564 131.56309 253.90625 131.78125 C 252.86787 132.36301 252.36216 133.4015 252.75 134.09375 C 253.13784 134.786 254.27412 134.86301 255.3125 134.28125 C 256.35088 133.69949 256.88784 132.661 256.5 131.96875 C 256.2576 131.53609 255.72007 131.3513 255.09375 131.40625 z M 157.96875 139.21875 C 157.49305 139.26588 156.98714 139.43614 156.5 139.71875 C 155.20096 140.47236 154.56009 141.79022 155.0625 142.65625 C 155.56491 143.52228 157.01346 143.62861 158.3125 142.875 C 159.61154 142.12139 160.25241 140.80353 159.75 139.9375 C 159.4988 139.50449 159.02777 139.25558 158.4375 139.21875 C 158.28993 139.20954 158.12732 139.20304 157.96875 139.21875 z M 438.53125 155.9375 C 438.28752 155.94425 438.04078 155.99221 437.84375 156.125 C 437.05564 156.65618 437.07823 158.03658 437.875 159.21875 C 438.67177 160.40092 439.93064 160.93743 440.71875 160.40625 C 441.50686 159.87507 441.51552 158.49467 440.71875 157.3125 C 440.12117 156.42587 439.26243 155.91725 438.53125 155.9375 z M 340.875 168.46875 C 340.53843 168.46016 340.25783 168.57949 340.09375 168.8125 C 339.7656 169.27852 340.08222 170.03902 340.78125 170.53125 C 341.48028 171.02348 342.29685 171.05977 342.625 170.59375 C 342.95315 170.12773 342.66778 169.33598 341.96875 168.84375 C 341.61923 168.59764 341.21157 168.47734 340.875 168.46875 z M 333.4375 179.3125 C 332.95325 179.32329 332.39839 179.58697 331.9375 180.0625 C 331.20008 180.82334 331.02402 181.82089 331.53125 182.3125 C 332.03848 182.80411 333.04383 182.60459 333.78125 181.84375 C 334.51867 181.08291 334.69473 180.05411 334.1875 179.5625 C 333.99729 179.37815 333.72805 179.30603 333.4375 179.3125 z M 477.6875 181.59375 C 477.61408 181.58874 477.5414 181.60801 477.46875 181.625 C 476.88755 181.76092 476.57737 182.5657 476.78125 183.4375 C 476.98513 184.3093 477.6063 184.91717 478.1875 184.78125 C 478.7687 184.64533 479.07888 183.8093 478.875 182.9375 C 478.6966 182.17467 478.20146 181.6288 477.6875 181.59375 z M 189.75 202.65625 C 189.51204 202.66957 189.2826 202.73981 189.09375 202.875 C 188.33833 203.41575 188.40763 204.77312 189.21875 205.90625 C 190.02987 207.03938 191.27583 207.54075 192.03125 207 C 192.78667 206.45925 192.74862 205.10188 191.9375 203.96875 C 191.32916 203.1189 190.46388 202.6163 189.75 202.65625 z M 256.03125 207.625 C 255.49029 207.59098 254.88459 208.10375 254.59375 208.875 C 254.26136 209.75643 254.47488 210.65341 255.0625 210.875 C 255.65012 211.09659 256.41761 210.53768 256.75 209.65625 C 257.08239 208.77482 256.86887 207.90909 256.28125 207.6875 C 256.2078 207.6598 256.10853 207.62986 256.03125 207.625 z M 80.3125 234.84375 C 79.586018 234.90178 79.010889 235.28306 78.90625 235.8125 C 78.766731 236.51841 79.534878 237.25947 80.59375 237.46875 C 81.652622 237.67803 82.610481 237.26841 82.75 236.5625 C 82.889519 235.85659 82.152622 235.11553 81.09375 234.90625 C 80.829032 234.85393 80.554661 234.82441 80.3125 234.84375 z M 268.21875 250.40625 C 267.11864 250.38358 266.21365 250.89484 266.09375 251.65625 C 265.95672 252.52644 266.88222 253.41946 268.1875 253.625 C 269.49278 253.83054 270.67547 253.27644 270.8125 252.40625 C 270.94953 251.53606 269.99278 250.67429 268.6875 250.46875 C 268.52434 250.44306 268.37591 250.40949 268.21875 250.40625 z M 98.90625 260.125 C 98.43836 260.1553 97.89498 260.42745 97.46875 260.90625 C 96.786783 261.67234 96.645525 262.67036 97.15625 263.125 C 97.666975 263.57964 98.630533 263.32859 99.3125 262.5625 C 99.994467 261.79641 100.13573 260.79839 99.625 260.34375 C 99.433478 260.17326 99.186984 260.10682 98.90625 260.125 z M 206.6875 276.03125 C 206.24999 276.06841 205.76549 276.43089 205.46875 277 C 205.07309 277.75881 205.18163 278.61123 205.6875 278.875 C 206.19337 279.13877 206.91684 278.72756 207.3125 277.96875 C 207.70816 277.20994 207.63087 276.38877 207.125 276.125 C 206.99853 276.05906 206.83334 276.01886 206.6875 276.03125 z M 359.375 276.40625 C 358.70725 276.43231 357.9373 276.80215 357.3125 277.46875 C 356.31283 278.53531 356.07021 279.95855 356.78125 280.625 C 357.49229 281.29145 358.87533 280.97281 359.875 279.90625 C 360.87467 278.83969 361.11729 277.41645 360.40625 276.75 C 360.13961 276.50008 359.77565 276.39061 359.375 276.40625 z M 232.59375 282.75 C 231.56491 282.76694 230.75584 284.01924 230.78125 285.5625 C 230.80666 287.10576 231.65866 288.32944 232.6875 288.3125 C 233.71634 288.29556 234.52541 287.04326 234.5 285.5 C 234.47459 283.95674 233.62259 282.73306 232.59375 282.75 z M 62.875 291.4375 C 62.565114 291.44753 62.28563 291.57378 62.09375 291.78125 C 61.582069 292.3345 61.857626 293.38873 62.6875 294.15625 C 63.517374 294.92377 64.613319 295.11575 65.125 294.5625 C 65.636681 294.00925 65.361124 292.92377 64.53125 292.15625 C 64.012579 291.67655 63.391477 291.42078 62.875 291.4375 z M 212.5625 301.5 C 211.96755 301.49073 211.44212 301.67909 211.15625 302.09375 C 210.58451 302.92308 211.13101 304.29864 212.375 305.15625 C 213.61899 306.01386 215.11576 306.04808 215.6875 305.21875 C 216.25924 304.38942 215.71274 303.01386 214.46875 302.15625 C 213.84675 301.72745 213.15745 301.50927 212.5625 301.5 z M 300.25 306.21875 C 299.69866 306.27453 299.32258 306.98549 299.40625 307.8125 C 299.48992 308.63951 300.01116 309.27453 300.5625 309.21875 C 301.11384 309.16297 301.48992 308.45201 301.40625 307.625 C 301.32258 306.79799 300.80134 306.16297 300.25 306.21875 z M 549.03125 313.03125 C 548.75999 313.03007 548.44365 313.1227 548.15625 313.3125 C 547.58145 313.6921 547.30943 314.3043 547.5625 314.6875 C 547.81557 315.0707 548.4877 315.09835 549.0625 314.71875 C 549.6373 314.33915 549.90932 313.6957 549.65625 313.3125 C 549.52972 313.1209 549.30251 313.03243 549.03125 313.03125 z M 115.78125 320 C 115.56623 319.99646 115.35594 320.03272 115.125 320.09375 C 114.20124 320.33788 113.58725 321.00916 113.75 321.625 C 113.91275 322.24084 114.79499 322.55663 115.71875 322.3125 C 116.64251 322.06837 117.2565 321.36584 117.09375 320.75 C 116.97169 320.28812 116.42631 320.01063 115.78125 320 z M 295.84375 328.90625 C 295.52479 328.91064 295.2326 329.00901 295.03125 329.21875 C 294.49431 329.77806 294.72353 330.88209 295.5625 331.6875 C 296.40147 332.49291 297.52556 332.68431 298.0625 332.125 C 298.59944 331.56569 298.37022 330.46166 297.53125 329.65625 C 297.00689 329.15287 296.37535 328.89893 295.84375 328.90625 z M 438.90625 332.5 C 438.67477 332.53216 438.45493 332.63394 438.28125 332.78125 C 437.58653 333.37049 437.74114 334.67667 438.625 335.71875 C 439.50886 336.76083 440.80528 337.12049 441.5 336.53125 C 442.19472 335.94201 442.04011 334.63583 441.15625 333.59375 C 440.49335 332.81219 439.60068 332.40351 438.90625 332.5 z M 262.75 341.125 C 262.67745 341.13902 262.59839 341.17879 262.53125 341.21875 C 261.9941 341.53843 261.92673 342.47553 262.40625 343.28125 C 262.88577 344.08697 263.71285 344.47593 264.25 344.15625 C 264.78715 343.83657 264.85452 342.89947 264.375 342.09375 C 264.01536 341.48946 263.44964 341.13872 262.96875 341.125 C 262.8886 341.12271 262.82255 341.11098 262.75 341.125 z M 137.5625 342.15625 C 137.37752 342.17549 137.20467 342.2626 137.0625 342.375 C 136.49383 342.82461 136.57558 343.86575 137.25 344.71875 C 137.92442 345.57175 138.93133 345.88711 139.5 345.4375 C 140.06867 344.98789 139.98692 343.94675 139.3125 343.09375 C 138.80669 342.454 138.11744 342.09853 137.5625 342.15625 z M 469.625 344.78125 C 469.26682 344.81907 468.98529 344.97998 468.84375 345.25 C 468.56068 345.79004 468.97119 346.57539 469.78125 347 C 470.59131 347.42461 471.49818 347.32129 471.78125 346.78125 C 472.06432 346.24121 471.62256 345.48711 470.8125 345.0625 C 470.40747 344.85019 469.98318 344.74343 469.625 344.78125 z M 375.0625 354.3125 C 374.81686 354.30643 374.59869 354.37577 374.4375 354.53125 C 374.00765 354.94585 374.15934 355.82397 374.78125 356.46875 C 375.40316 357.11353 376.25765 357.2896 376.6875 356.875 C 377.11735 356.4604 376.96566 355.58228 376.34375 354.9375 C 375.95506 354.53451 375.47189 354.32261 375.0625 354.3125 z M 296.625 355.96875 C 295.91176 355.92707 295.28128 356.77389 295.21875 357.84375 C 295.15622 358.91361 295.69301 359.80207 296.40625 359.84375 C 297.11949 359.88543 297.74997 359.03861 297.8125 357.96875 C 297.87503 356.89889 297.33824 356.01043 296.625 355.96875 z M 212.96875 383.8125 C 211.70209 383.78253 210.67199 384.37367 210.53125 385.25 C 210.37041 386.25152 211.43522 387.25874 212.9375 387.5 C 214.43978 387.74126 215.80791 387.12652 215.96875 386.125 C 216.12959 385.12348 215.03353 384.11626 213.53125 383.875 C 213.34347 383.84484 213.1497 383.81678 212.96875 383.8125 z M 191.8125 400.96875 C 191.29278 400.9968 190.68486 401.43031 190.3125 402.09375 C 189.81601 402.97834 189.91028 403.95026 190.5 404.28125 C 191.08972 404.61224 191.97226 404.16584 192.46875 403.28125 C 192.96524 402.39666 192.87097 401.42474 192.28125 401.09375 C 192.13382 401.011 191.98574 400.9594 191.8125 400.96875 z M 321.84375 401.65625 C 320.98347 401.72061 320.31452 402.12393 320.1875 402.75 C 320.01815 403.58476 320.90411 404.49597 322.15625 404.75 C 323.40839 405.00403 324.5494 404.52226 324.71875 403.6875 C 324.8881 402.85274 324.00214 401.97278 322.75 401.71875 C 322.43697 401.65524 322.13051 401.6348 321.84375 401.65625 z M 578.21875 405.40625 C 577.92203 405.43584 577.63952 405.5698 577.46875 405.78125 C 577.01337 406.34511 577.34171 407.34819 578.1875 408.03125 C 579.03329 408.71431 580.07587 408.81386 580.53125 408.25 C 580.98663 407.68614 580.68954 406.68306 579.84375 406 C 579.31513 405.57309 578.71329 405.35693 578.21875 405.40625 z M 210.4375 411.4375 C 210.0059 411.43198 209.50104 411.75285 209.15625 412.28125 C 208.69652 412.98578 208.68657 413.78727 209.15625 414.09375 C 209.62593 414.40023 210.38402 414.07953 210.84375 413.375 C 211.30348 412.67047 211.31343 411.86898 210.84375 411.5625 C 210.72633 411.48588 210.58137 411.43934 210.4375 411.4375 z M 288.09375 412.09375 C 287.44531 412.2069 286.8436 412.97557 286.71875 413.96875 C 286.57606 415.10381 287.08704 416.12362 287.84375 416.21875 C 288.60046 416.31388 289.32606 415.44756 289.46875 414.3125 C 289.61144 413.17744 289.13171 412.18888 288.375 412.09375 C 288.28041 412.08186 288.18638 412.07759 288.09375 412.09375 z M 326 414.75 C 325.80315 414.75586 325.62767 414.82991 325.46875 414.9375 C 324.83309 415.36785 324.82323 416.484 325.46875 417.4375 C 326.11427 418.391 327.14559 418.80535 327.78125 418.375 C 328.41691 417.94465 328.42677 416.8285 327.78125 415.875 C 327.29711 415.15988 326.59054 414.73242 326 414.75 z M 618.5 433.03125 C 617.87265 432.9861 617.31451 433.2182 617.15625 433.65625 C 616.94524 434.24031 617.49891 434.96474 618.375 435.28125 C 619.25109 435.59776 620.13274 435.39656 620.34375 434.8125 C 620.55476 434.22844 620.00109 433.50401 619.125 433.1875 C 618.90598 433.10837 618.70912 433.0463 618.5 433.03125 z M 651.03125 449.28125 C 650.3058 449.36747 649.49727 449.89417 648.90625 450.71875 C 648.00565 451.97525 647.94358 453.4621 648.78125 454.0625 C 649.61892 454.6629 651.0369 454.1315 651.9375 452.875 C 652.8381 451.6185 652.90017 450.13165 652.0625 449.53125 C 651.85308 449.38115 651.60773 449.29618 651.34375 449.28125 C 651.24476 449.27565 651.13489 449.26893 651.03125 449.28125 z M 588.75 481.3125 C 587.56571 481.42008 586.66247 482.07407 586.625 482.90625 C 586.58218 483.85731 587.69841 484.68577 589.125 484.75 C 590.55159 484.81423 591.73843 484.10731 591.78125 483.15625 C 591.82407 482.20519 590.70784 481.37673 589.28125 481.3125 C 589.10293 481.30447 588.91918 481.29713 588.75 481.3125 z M 518.65625 482.625 C 518.12166 482.6289 517.4995 482.83812 516.9375 483.21875 C 515.81349 483.98 515.33625 485.18816 515.84375 485.9375 C 516.35125 486.68684 517.65724 486.69875 518.78125 485.9375 C 519.90526 485.17625 520.41375 483.93684 519.90625 483.1875 C 519.6525 482.81283 519.19084 482.6211 518.65625 482.625 z M 287.8125 526.53125 C 287.38516 526.52487 287.02772 526.66434 286.75 526.9375 C 286.00941 527.66592 286.28237 529.13911 287.375 530.25 C 288.46763 531.36089 289.94691 531.66592 290.6875 530.9375 C 291.42809 530.20908 291.15513 528.73589 290.0625 527.625 C 289.37961 526.9307 288.52473 526.54188 287.8125 526.53125 z M 350.8125 585.75 C 350.11614 585.80322 349.31405 586.24824 348.6875 586.96875 C 347.68501 588.12156 347.51271 589.58167 348.28125 590.25 C 349.04979 590.91833 350.49751 590.52781 351.5 589.375 C 352.50249 588.22219 352.67479 586.76208 351.90625 586.09375 C 351.61805 585.84313 351.23031 585.71807 350.8125 585.75 z M 627.0625 618.125 C 626.67617 618.16925 626.37487 618.31478 626.15625 618.59375 C 625.57325 619.33766 625.97789 620.65676 627.09375 621.53125 C 628.20961 622.40574 629.6045 622.52516 630.1875 621.78125 C 630.7705 621.03734 630.33461 619.71824 629.21875 618.84375 C 628.52134 618.29719 627.70638 618.05126 627.0625 618.125 z M 417.875 620.15625 C 417.37509 620.1163 416.77486 620.34006 416.25 620.78125 C 415.41023 621.48715 415.12315 622.50265 415.59375 623.0625 C 416.06435 623.62235 417.12898 623.5184 417.96875 622.8125 C 418.80852 622.1066 419.0956 621.05985 418.625 620.5 C 418.44852 620.29006 418.17495 620.18022 417.875 620.15625 z M 576.65625 627.40625 C 576.08687 627.49075 575.64795 627.82721 575.59375 628.25 C 575.52148 628.81372 576.15443 629.36034 577 629.46875 C 577.84557 629.57716 578.58398 629.18872 578.65625 628.625 C 578.72852 628.06128 578.09557 627.51466 577.25 627.40625 C 577.03861 627.37915 576.84604 627.37808 576.65625 627.40625 z M 573.25 642.25 C 572.39304 642.37689 571.60418 643.38506 571.40625 644.6875 C 571.18005 646.17601 571.78891 647.50545 572.78125 647.65625 C 573.77359 647.80705 574.7738 646.70726 575 645.21875 C 575.2262 643.73024 574.61734 642.4008 573.625 642.25 C 573.50096 642.23115 573.37242 642.23187 573.25 642.25 z M 79.0625 647.65625 C 78.716299 647.65772 78.369671 647.70657 78 647.8125 C 76.521317 648.23622 75.530018 649.38921 75.8125 650.375 C 76.094982 651.36079 77.552567 651.79872 79.03125 651.375 C 80.509933 650.95128 81.469982 649.79829 81.1875 648.8125 C 80.975638 648.07316 80.101103 647.65185 79.0625 647.65625 z M 522.03125 652.53125 C 521.92208 652.52519 521.82636 652.5359 521.71875 652.5625 C 520.85789 652.77528 520.43082 653.98997 520.75 655.28125 C 521.06918 656.57253 522.01414 657.43153 522.875 657.21875 C 523.73586 657.00597 524.16293 655.79128 523.84375 654.5 C 523.56447 653.37013 522.79542 652.5737 522.03125 652.53125 z M 162.53125 672.34375 C 161.78503 672.42002 161.06586 673.25612 160.84375 674.375 C 160.58991 675.65372 161.08502 676.83078 161.9375 677 C 162.78998 677.16922 163.68366 676.27872 163.9375 675 C 164.19134 673.72128 163.72748 672.54422 162.875 672.375 C 162.76844 672.35385 162.63785 672.33285 162.53125 672.34375 z M 396.3125 723.21875 C 396.22825 723.21654 396.14192 723.2332 396.0625 723.25 C 395.97174 723.2692 395.89475 723.29814 395.8125 723.34375 C 395.15447 723.70864 395.04642 724.82545 395.59375 725.8125 C 396.14108 726.79955 397.12322 727.30239 397.78125 726.9375 C 398.43928 726.57261 398.54733 725.4558 398 724.46875 C 397.58095 723.71304 396.90225 723.23421 396.3125 723.21875 z M 131.59375 747 C 131.21575 747.03748 130.81043 747.22544 130.4375 747.53125 C 129.69163 748.14287 129.40475 749.034 129.8125 749.53125 C 130.22025 750.0285 131.16038 749.95537 131.90625 749.34375 C 132.65212 748.73213 132.90775 747.80975 132.5 747.3125 C 132.29613 747.06388 131.97175 746.96252 131.59375 747 z M 291.90625 763.9375 C 291.56109 763.98448 291.28424 764.15225 291.09375 764.40625 C 290.58577 765.08359 290.98399 766.23804 292 767 C 293.01601 767.76196 294.24202 767.83359 294.75 767.15625 C 295.25798 766.47891 294.85976 765.32446 293.84375 764.5625 C 293.20875 764.08627 292.48151 763.8592 291.90625 763.9375 z M 420.71875 766.15625 C 420.62594 766.15616 420.55873 766.15997 420.46875 766.1875 C 419.74892 766.40771 419.41969 767.45151 419.75 768.53125 C 420.08031 769.61099 420.93642 770.31396 421.65625 770.09375 C 422.37608 769.87354 422.67406 768.82974 422.34375 767.75 C 422.05473 766.80523 421.36844 766.15686 420.71875 766.15625 z M 238.125 773.71875 C 237.40594 773.67534 236.52269 774.00798 235.78125 774.65625 C 234.59495 775.69348 234.18351 777.17789 234.875 777.96875 C 235.56649 778.75961 237.09495 778.56848 238.28125 777.53125 C 239.46755 776.49402 239.87899 775.00961 239.1875 774.21875 C 238.92819 773.92218 238.55643 773.74479 238.125 773.71875 z M 270.96875 789.4375 C 269.62641 789.45555 268.55047 790.19886 268.5625 791.09375 C 268.57453 791.98864 269.65766 792.70555 271 792.6875 C 272.34234 792.66945 273.44953 791.92614 273.4375 791.03125 C 273.42547 790.13636 272.31109 789.41945 270.96875 789.4375 z M 540.90625 810.71875 C 540.22454 810.72234 539.40995 811.09186 538.75 811.75 C 537.69407 812.80303 537.42298 814.2023 538.125 814.90625 C 538.82702 815.6102 540.25657 815.33428 541.3125 814.28125 C 542.36843 813.22822 542.63952 811.7977 541.9375 811.09375 C 541.67424 810.82977 541.31527 810.71659 540.90625 810.71875 z M 756.6875 813.1875 C 756.52314 813.199 756.35974 813.25066 756.1875 813.3125 C 755.49853 813.55988 755.05383 814.13443 755.21875 814.59375 C 755.38367 815.05307 756.09228 815.21613 756.78125 814.96875 C 757.47022 814.72137 757.88367 814.14682 757.71875 813.6875 C 757.59506 813.34301 757.18058 813.15299 756.6875 813.1875 z M 254.3125 818.90625 C 253.87406 818.94988 253.4012 819.14513 252.96875 819.5 C 252.10385 820.20975 251.77683 821.2359 252.25 821.8125 C 252.72317 822.3891 253.8226 822.3035 254.6875 821.59375 C 255.5524 820.884 255.84817 819.8266 255.375 819.25 C 255.13842 818.9617 254.75094 818.86262 254.3125 818.90625 z M 175.5625 833.3125 C 175.49399 833.32962 175.40505 833.36928 175.34375 833.40625 C 174.85334 833.70203 174.83758 834.54564 175.28125 835.28125 C 175.72492 836.01686 176.47834 836.35828 176.96875 836.0625 C 177.45916 835.76672 177.47492 834.92311 177.03125 834.1875 C 176.64303 833.54384 176.04204 833.19265 175.5625 833.3125 z M 310.6875 841.4375 C 310.2355 841.52186 309.96722 842.1345 310.09375 842.8125 C 310.22028 843.4905 310.70425 843.95936 311.15625 843.875 C 311.60825 843.79064 311.84528 843.178 311.71875 842.5 C 311.59222 841.822 311.1395 841.35314 310.6875 841.4375 z M 94.125 852.625 C 93.79512 852.66112 93.500255 852.79411 93.3125 853.03125 C 92.81182 853.66363 93.176431 854.78023 94.125 855.53125 C 95.073569 856.28227 96.24932 856.38238 96.75 855.75 C 97.25068 855.11762 96.886069 854.00102 95.9375 853.25 C 95.344645 852.78061 94.6748 852.5648 94.125 852.625 z M 261.28125 862.125 C 261.05552 862.14586 260.8311 862.20874 260.65625 862.34375 C 259.95685 862.88378 260.06495 864.16965 260.875 865.21875 C 261.68505 866.26785 262.89435 866.69628 263.59375 866.15625 C 264.29315 865.61622 264.2163 864.2991 263.40625 863.25 C 262.79871 862.46318 261.95843 862.06242 261.28125 862.125 z M 141.5625 868.46875 C 140.85787 868.4695 140.12583 869.16279 139.8125 870.1875 C 139.4544 871.3586 139.78177 872.51127 140.5625 872.75 C 141.34323 872.98873 142.2669 872.2336 142.625 871.0625 C 142.9831 869.8914 142.65573 868.73873 141.875 868.5 C 141.77741 868.47016 141.66316 868.46864 141.5625 868.46875 z M 32 871.21875 C 30.871629 871.21875 29.96875 871.81025 29.96875 872.5625 C 29.96875 873.31475 30.871629 873.9375 32 873.9375 C 33.128371 873.9375 34.0625 873.31475 34.0625 872.5625 C 34.0625 871.81025 33.128371 871.21875 32 871.21875 z M 215.15625 917 C 214.64893 917.05736 214.06361 917.3945 213.625 917.9375 C 212.92322 918.8063 212.82705 919.87589 213.40625 920.34375 C 213.98545 920.81161 215.04822 920.4938 215.75 919.625 C 216.45178 918.7562 216.54795 917.68661 215.96875 917.21875 C 215.75155 917.0433 215.46064 916.96558 215.15625 917 z M 248.9375 939.75 C 248.65832 939.7544 248.39463 939.84731 248.21875 940.03125 C 247.74975 940.52176 247.98298 941.51525 248.71875 942.21875 C 249.45452 942.92225 250.43725 943.08426 250.90625 942.59375 C 251.37525 942.10324 251.14202 941.141 250.40625 940.4375 C 249.94639 939.99781 249.4028 939.74266 248.9375 939.75 z M 469 952.3125 C 468.49187 952.41456 468.22191 953.1128 468.375 953.875 C 468.52809 954.6372 469.05437 955.16456 469.5625 955.0625 C 470.07063 954.96044 470.37184 954.2622 470.21875 953.5 C 470.06566 952.7378 469.50813 952.21044 469 952.3125 z M 368.6875 956.4375 C 367.88264 956.52884 367.22627 956.9228 367.03125 957.53125 C 366.71922 958.50477 367.66472 959.6882 369.125 960.15625 C 370.58528 960.6243 372.03172 960.22352 372.34375 959.25 C 372.65578 958.27648 371.71028 957.09305 370.25 956.625 C 369.70239 956.44948 369.17042 956.38269 368.6875 956.4375 z M 456.3125 957.84375 C 455.90723 957.82454 455.40357 958.10858 455.0625 958.59375 C 454.60774 959.24064 454.59999 960.00933 455.03125 960.3125 C 455.46251 960.61567 456.17024 960.33439 456.625 959.6875 C 457.07976 959.04061 457.11876 958.27192 456.6875 957.96875 C 456.57968 957.89296 456.44759 957.85015 456.3125 957.84375 z M 321.5625 960.3125 C 321.44632 960.31984 321.36042 960.33332 321.25 960.375 C 320.36664 960.70845 320.03108 962.04997 320.53125 963.375 C 321.03142 964.70003 322.14789 965.52095 323.03125 965.1875 C 323.91461 964.85405 324.25017 963.48128 323.75 962.15625 C 323.31235 960.99684 322.37579 960.26109 321.5625 960.3125 z M 316.65625 993.90625 C 316.55832 993.9062 316.44568 993.92109 316.34375 993.9375 C 315.66424 994.04688 314.93124 994.52227 314.375 995.28125 C 313.48502 996.49562 313.40917 997.96918 314.21875 998.5625 C 315.02833 999.15582 316.42252 998.65187 317.3125 997.4375 C 318.20248 996.22313 318.24708 994.74957 317.4375 994.15625 C 317.20981 993.98938 316.95005 993.9064 316.65625 993.90625 z M 224.28125 1024.625 C 223.46474 1024.6209 222.81524 1025.0494 222.8125 1025.5938 C 222.80976 1026.1327 223.46474 1026.5856 224.28125 1026.5938 C 225.09776 1026.5974 225.77851 1026.1693 225.78125 1025.625 C 225.78399 1025.0807 225.09776 1024.6291 224.28125 1024.625 z M 373.8125 1029.6875 C 372.92364 1029.7647 372.22977 1030.3201 372.28125 1030.9062 C 372.33273 1031.4995 373.11114 1031.8897 374 1031.8125 C 374.88886 1031.7353 375.55148 1031.2176 375.5 1030.625 C 375.44852 1030.0324 374.70136 1029.6103 373.8125 1029.6875 z "
       style="fill:#ffffff;fill-rule:evenodd;stroke:#000000;stroke-width:1px;stroke-linecap:butt;stroke-linejoin:miter;stroke-opacity:1" />
    <rect
       style="fill:#000000;fill-rule:evenodd;stroke:#000000;stroke-width:1px;stroke-linecap:butt;stroke-linejoin:miter;stroke-opacity:1"
       id="rect4756"
       width="751.85956"
       height="1067.8585"
       x="0"
       y="-1.875646" />
    <path
       style="fill:#ffffff;fill-rule:evenodd;stroke:#000000;stroke-width:1px;stroke-linecap:butt;stroke-linejoin:miter;stroke-opacity:1"
       d="M 379.125 80.15625 C 378.48234 80.135045 377.93594 80.850276 377.90625 81.75 C 377.87656 82.649724 378.35734 83.385045 379 83.40625 C 379.64266 83.427455 380.18906 82.712224 380.21875 81.8125 C 380.24844 80.912776 379.76766 80.177455 379.125 80.15625 z M 672.875 103.8125 C 671.91682 103.80018 671.11301 104.25945 671 104.96875 C 670.87085 105.77938 671.70887 106.60044 672.84375 106.78125 C 673.97863 106.96206 674.99585 106.43563 675.125 105.625 C 675.25415 104.81437 674.44738 104.02456 673.3125 103.84375 C 673.17064 103.82115 673.01188 103.81426 672.875 103.8125 z M 428.46875 111.625 C 427.56145 111.77155 426.98234 112.91728 427.1875 114.1875 C 427.39266 115.45772 428.31145 116.3653 429.21875 116.21875 C 430.12605 116.0722 430.67391 114.92647 430.46875 113.65625 C 430.26359 112.38603 429.37605 111.47845 428.46875 111.625 z M 506.375 129.28125 C 506.10687 129.25181 505.79217 129.33623 505.5 129.5 C 504.91566 129.82754 504.64104 130.42637 504.875 130.84375 C 505.10896 131.26113 505.75941 131.32754 506.34375 131 C 506.92809 130.67246 507.23396 130.07363 507 129.65625 C 506.88302 129.44756 506.64313 129.31069 506.375 129.28125 z M 586.25 148.71875 C 585.95191 148.76708 585.62656 148.95511 585.375 149.25 C 584.92778 149.77425 584.87553 150.46181 585.25 150.78125 C 585.62447 151.10069 586.27153 150.9305 586.71875 150.40625 C 587.16597 149.882 587.21822 149.19444 586.84375 148.875 C 586.75013 148.79514 586.65334 148.73991 586.53125 148.71875 C 586.43968 148.70288 586.34936 148.70264 586.25 148.71875 z M 457.78125 163.75 C 457.34031 163.75136 456.96685 164.25769 456.96875 164.875 C 456.97065 165.49231 457.34031 166.00136 457.78125 166 C 458.22219 165.99864 458.5644 165.49231 458.5625 164.875 C 458.5606 164.25769 458.22219 163.74864 457.78125 163.75 z M 67.125 171.84375 C 67.047752 171.83761 66.956095 171.85648 66.875 171.875 C 66.388434 171.98613 65.899228 172.46423 65.6875 173.125 C 65.405196 174.00603 65.683196 174.8921 66.3125 175.09375 C 66.941804 175.2954 67.686446 174.75603 67.96875 173.875 C 68.251054 172.99397 67.973054 172.1079 67.34375 171.90625 C 67.265087 171.88105 67.202248 171.84989 67.125 171.84375 z M 592.9375 196.03125 C 592.65005 196.03797 592.3481 196.16075 592.0625 196.375 C 591.49129 196.8035 591.25643 197.49824 591.5625 197.90625 C 591.86857 198.31426 592.58504 198.27225 593.15625 197.84375 C 593.72746 197.41525 593.93107 196.75176 593.625 196.34375 C 593.47196 196.13975 593.22495 196.02453 592.9375 196.03125 z M 329.40625 223.5 C 329.09039 223.54465 328.74728 223.66757 328.4375 223.875 C 327.61142 224.42815 327.26114 225.3787 327.65625 225.96875 C 328.05136 226.5588 329.04892 226.5844 329.875 226.03125 C 330.70108 225.4781 331.05136 224.52755 330.65625 223.9375 C 330.40931 223.56872 329.93268 223.42558 329.40625 223.5 z M 597.0625 236.25 C 596.40004 236.34497 595.6994 236.92151 595.34375 237.78125 C 594.86955 238.92757 595.14995 240.13004 595.96875 240.46875 C 596.78755 240.80746 597.8383 240.14632 598.3125 239 C 598.7867 237.85368 598.5063 236.65121 597.6875 236.3125 C 597.4828 236.22782 597.28332 236.21834 597.0625 236.25 z M 511.25 238.9375 C 510.97703 238.94268 510.7461 239.00712 510.5625 239.1875 C 510.07289 239.66852 510.23282 240.62704 510.90625 241.3125 C 511.57968 241.99796 512.51039 242.16852 513 241.6875 C 513.48961 241.20648 513.32968 240.24796 512.65625 239.5625 C 512.23535 239.13409 511.70494 238.92886 511.25 238.9375 z M 160.5625 241.625 C 159.64848 241.5766 158.87832 242.06588 158.84375 242.71875 C 158.80918 243.37162 159.52348 243.9516 160.4375 244 C 161.35152 244.0484 162.12168 243.55912 162.15625 242.90625 C 162.19082 242.25338 161.47652 241.6734 160.5625 241.625 z M 479.5 245.3125 C 479.31708 245.30803 479.13238 245.32128 478.9375 245.375 C 478.15798 245.58987 477.65902 246.22445 477.8125 246.78125 C 477.96598 247.33805 478.72048 247.62112 479.5 247.40625 C 480.27952 247.19138 480.77848 246.5568 480.625 246 C 480.50989 245.5824 480.04877 245.32591 479.5 245.3125 z M 541.3125 247.5625 C 541.02292 247.53275 540.7645 247.58759 540.59375 247.78125 C 540.25224 248.16857 540.4265 248.86564 540.96875 249.34375 C 541.511 249.82186 542.22099 249.91857 542.5625 249.53125 C 542.90401 249.14393 542.761 248.44686 542.21875 247.96875 C 541.94763 247.72969 541.60208 247.59225 541.3125 247.5625 z M 479.59375 256.8125 C 479.28134 256.82453 478.92567 257.05526 478.71875 257.4375 C 478.44286 257.94716 478.51096 258.52169 478.875 258.71875 C 479.23904 258.91581 479.75536 258.66591 480.03125 258.15625 C 480.30714 257.64659 480.23904 257.07206 479.875 256.875 C 479.78399 256.82573 479.69789 256.80849 479.59375 256.8125 z M 172.625 274.375 C 172.53482 274.38432 172.42952 274.40305 172.34375 274.4375 C 171.65762 274.71311 171.42665 275.72691 171.8125 276.6875 C 172.19835 277.64809 173.06387 278.21311 173.75 277.9375 C 174.43613 277.66189 174.69835 276.64809 174.3125 275.6875 C 173.97488 274.84699 173.25627 274.30978 172.625 274.375 z M 229.78125 276.65625 C 229.10588 276.58835 228.51725 276.92384 228.46875 277.40625 C 228.42025 277.88866 228.91838 278.33835 229.59375 278.40625 C 230.26912 278.47415 230.85775 278.13866 230.90625 277.65625 C 230.95475 277.17384 230.45662 276.72415 229.78125 276.65625 z M 533.8125 288.46875 C 533.46696 288.51545 533.20693 288.69529 533.0625 288.96875 C 532.77364 289.51568 533.14055 290.28309 533.90625 290.6875 C 534.67195 291.09191 535.52364 290.98443 535.8125 290.4375 C 536.10136 289.89057 535.73445 289.12316 534.96875 288.71875 C 534.5859 288.51655 534.15804 288.42205 533.8125 288.46875 z M 188 321.90625 C 187.59193 321.95075 187.1302 322.12927 186.75 322.46875 C 185.98959 323.14771 185.76503 324.14435 186.25 324.6875 C 186.73497 325.23065 187.73959 325.11646 188.5 324.4375 C 189.26041 323.75854 189.48497 322.7619 189 322.21875 C 188.75751 321.94718 188.40807 321.86175 188 321.90625 z M 604.65625 365.8125 C 604.31745 365.8475 603.96383 365.97858 603.625 366.1875 C 602.72146 366.74462 602.28956 367.72961 602.6875 368.375 C 603.08544 369.02039 604.15896 369.08837 605.0625 368.53125 C 605.96604 367.97413 606.36669 366.98914 605.96875 366.34375 C 605.72004 365.94038 605.22092 365.75417 604.65625 365.8125 z M 304.34375 421.6875 C 304.05738 421.69246 303.8003 421.79076 303.65625 422 C 303.36815 422.41848 303.63287 423.09665 304.21875 423.5 C 304.80463 423.90335 305.49315 423.88723 305.78125 423.46875 C 306.06935 423.05027 305.83588 422.3721 305.25 421.96875 C 304.95706 421.76708 304.63012 421.68254 304.34375 421.6875 z M 168.96875 436.5 C 168.21501 436.47235 167.42797 437.16417 167.09375 438.1875 C 166.71178 439.35702 167.07088 440.53967 167.90625 440.8125 C 168.74162 441.08533 169.74303 440.35702 170.125 439.1875 C 170.50697 438.01798 170.11662 436.83533 169.28125 436.5625 C 169.17683 436.5284 169.07643 436.50395 168.96875 436.5 z M 368.59375 445.59375 C 368.1919 445.6426 367.89856 445.84155 367.84375 446.15625 C 367.77067 446.57585 368.16257 447.02269 368.75 447.125 C 369.33743 447.22731 369.89567 446.95085 369.96875 446.53125 C 370.04183 446.11165 369.61868 445.69606 369.03125 445.59375 C 368.88439 445.56817 368.7277 445.57747 368.59375 445.59375 z M 317 491.9375 C 316.86088 491.9494 316.7066 492.01319 316.59375 492.09375 C 316.14234 492.41598 316.14262 493.18053 316.59375 493.8125 C 317.04488 494.44447 317.79859 494.69723 318.25 494.375 C 318.70141 494.05277 318.70113 493.28822 318.25 492.65625 C 317.91165 492.18227 317.41736 491.9018 317 491.9375 z M 181.3125 513.46875 C 180.92812 513.49587 180.52507 513.66393 180.15625 513.96875 C 179.41862 514.57839 179.15829 515.50437 179.59375 516.03125 C 180.02921 516.55813 180.98112 516.48464 181.71875 515.875 C 182.45638 515.26536 182.71671 514.33938 182.28125 513.8125 C 182.06352 513.54906 181.69688 513.44163 181.3125 513.46875 z M 334.90625 532.1875 C 334.75939 532.20448 334.64814 532.25494 334.53125 532.34375 C 334.06367 532.699 334.06515 533.53289 334.5625 534.1875 C 335.05985 534.84211 335.84492 535.074 336.3125 534.71875 C 336.78008 534.3635 336.7786 533.56086 336.28125 532.90625 C 335.90824 532.41529 335.34682 532.13657 334.90625 532.1875 z M 191.5625 579.96875 C 191.0921 580.00737 190.5771 580.29516 190.1875 580.78125 C 189.56413 581.559 189.50696 582.55474 190.0625 583 C 190.61804 583.44526 191.56413 583.15275 192.1875 582.375 C 192.81087 581.59725 192.86804 580.60151 192.3125 580.15625 C 192.10417 579.98928 191.84474 579.94558 191.5625 579.96875 z M 190.625 596.71875 C 190.0691 596.80268 189.48087 597.30681 189.1875 598.03125 C 188.79634 598.99718 189.06005 600.00185 189.75 600.28125 C 190.43995 600.56065 191.29634 600.02843 191.6875 599.0625 C 192.07866 598.09657 191.8462 597.06065 191.15625 596.78125 C 190.98376 596.7114 190.8103 596.69077 190.625 596.71875 z M 408.25 607.21875 C 407.96742 607.25724 407.71164 607.40121 407.59375 607.625 C 407.35796 608.07258 407.68589 608.70115 408.3125 609.03125 C 408.93911 609.36135 409.63921 609.26008 409.875 608.8125 C 410.11079 608.36492 409.78286 607.73635 409.15625 607.40625 C 408.84294 607.2412 408.53258 607.18026 408.25 607.21875 z M 152.96875 618.875 C 152.32674 618.8998 151.71834 619.54686 151.5 620.4375 C 151.25047 621.45537 151.6167 622.41552 152.34375 622.59375 C 153.0708 622.77198 153.87547 622.08037 154.125 621.0625 C 154.37453 620.04463 153.97705 619.08448 153.25 618.90625 C 153.15912 618.88397 153.06047 618.87146 152.96875 618.875 z M 336.375 640.1875 C 336.08525 640.22449 335.85091 640.37095 335.75 640.59375 C 335.5706 640.98984 335.88297 641.49884 336.4375 641.75 C 336.99203 642.00116 337.60185 641.89609 337.78125 641.5 C 337.96065 641.10391 337.64828 640.56366 337.09375 640.3125 C 336.95512 640.24971 336.82406 640.20562 336.6875 640.1875 C 336.58508 640.17391 336.47158 640.17517 336.375 640.1875 z M 355.4375 644.21875 C 354.96002 644.28034 354.46926 644.53066 354.03125 644.9375 C 353.15524 645.75119 352.91879 646.90553 353.5 647.53125 C 354.08121 648.15697 355.24899 648.00119 356.125 647.1875 C 357.00101 646.37381 357.23746 645.21947 356.65625 644.59375 C 356.36565 644.28089 355.91498 644.15716 355.4375 644.21875 z M 298.3125 694.1875 C 297.61756 694.16755 296.82863 694.65156 296.3125 695.46875 C 295.62433 696.55833 295.69048 697.82095 296.46875 698.3125 C 297.24702 698.80405 298.43683 698.33958 299.125 697.25 C 299.81317 696.16042 299.74702 694.86655 298.96875 694.375 C 298.77418 694.25211 298.54415 694.19415 298.3125 694.1875 z M 195.40625 727.59375 C 195.22947 727.60701 195.05772 727.64824 194.875 727.71875 C 194.14414 728.00078 193.7048 728.66545 193.90625 729.1875 C 194.1077 729.70955 194.86289 729.90703 195.59375 729.625 C 196.32461 729.34297 196.76395 728.6783 196.5625 728.15625 C 196.41141 727.76472 195.93659 727.55397 195.40625 727.59375 z M 325.15625 734.59375 C 324.56163 734.67216 324.10024 735.07527 324.15625 735.5 C 324.21226 735.92473 324.74913 736.20341 325.34375 736.125 C 325.93837 736.04659 326.36851 735.64348 326.3125 735.21875 C 326.25649 734.79402 325.75087 734.51534 325.15625 734.59375 z M 554.0625 735 C 553.22184 735.00216 552.50272 735.36448 552.3125 736 C 552.05888 736.84736 552.8137 737.83243 554 738.1875 C 555.1863 738.54257 556.37138 738.15986 556.625 737.3125 C 556.87862 736.46514 556.09255 735.48007 554.90625 735.125 C 554.60968 735.03623 554.34272 734.99928 554.0625 735 z M 187.21875 756.6875 C 186.65564 756.70787 186.09965 757.25061 185.90625 758.03125 C 185.68522 758.92341 186.05024 759.77962 186.6875 759.9375 C 187.32476 760.09538 187.99772 759.51716 188.21875 758.625 C 188.43978 757.73284 188.10601 756.87663 187.46875 756.71875 C 187.38909 756.69902 187.29919 756.68459 187.21875 756.6875 z M 247.5 774.03125 C 247.30654 774.04689 247.10585 774.10915 246.90625 774.1875 C 246.10786 774.50092 245.65113 775.21097 245.875 775.78125 C 246.09887 776.35153 246.92036 776.56342 247.71875 776.25 C 248.51714 775.93658 249.00512 775.19528 248.78125 774.625 C 248.61335 774.19729 248.08039 773.98432 247.5 774.03125 z M 483.90625 776.46875 C 483.76199 776.48219 483.64772 776.54052 483.53125 776.625 C 483.06538 776.96291 483.05818 777.75403 483.53125 778.40625 C 484.00432 779.05847 484.75288 779.30666 485.21875 778.96875 C 485.68462 778.63084 485.69182 777.83972 485.21875 777.1875 C 484.86395 776.69834 484.33904 776.42843 483.90625 776.46875 z M 679.1875 779.28125 C 678.71865 779.34189 678.24247 779.60034 677.8125 780 C 676.95256 780.79931 676.71031 781.94826 677.28125 782.5625 C 677.85219 783.17674 679.01506 783.01806 679.875 782.21875 C 680.73494 781.41944 680.94594 780.27049 680.375 779.65625 C 680.08953 779.34913 679.65635 779.22061 679.1875 779.28125 z M 625.375 790.34375 C 625.12519 790.36472 624.8949 790.46514 624.78125 790.65625 C 624.55396 791.03846 624.80865 791.61929 625.34375 791.9375 C 625.87885 792.25571 626.49146 792.19471 626.71875 791.8125 C 626.94604 791.43029 626.7226 790.88071 626.1875 790.5625 C 625.91995 790.4034 625.62481 790.32278 625.375 790.34375 z M 285.625 801.1875 C 285.5036 801.18504 285.37642 801.20288 285.25 801.21875 C 284.23861 801.3457 283.50307 802.02758 283.59375 802.75 C 283.68443 803.47242 284.58236 803.93945 285.59375 803.8125 C 286.60514 803.68555 287.34068 803.00367 287.25 802.28125 C 287.17066 801.64913 286.47479 801.20473 285.625 801.1875 z M 380.96875 839.96875 C 380.49255 839.99556 379.99307 840.19172 379.53125 840.5625 C 378.60761 841.30405 378.28282 842.43401 378.8125 843.09375 C 379.34218 843.75349 380.51386 843.7103 381.4375 842.96875 C 382.36114 842.2272 382.68593 841.06599 382.15625 840.40625 C 381.89141 840.07638 381.44495 839.94194 380.96875 839.96875 z M 685.21875 858.09375 C 684.97182 858.13631 684.68753 858.27878 684.46875 858.5 C 684.03119 858.94244 683.93397 859.56246 684.25 859.875 C 684.56603 860.18754 685.18744 860.06744 685.625 859.625 C 686.06256 859.18256 686.15978 858.56254 685.84375 858.25 C 685.68573 858.09373 685.46568 858.05119 685.21875 858.09375 z M 545.34375 863.21875 C 544.87285 863.24514 544.36301 863.44597 543.90625 863.8125 C 542.99273 864.54556 542.66389 865.69124 543.1875 866.34375 C 543.71111 866.99626 544.86773 866.92056 545.78125 866.1875 C 546.69477 865.45444 547.02361 864.34001 546.5 863.6875 C 546.23819 863.36124 545.81465 863.19236 545.34375 863.21875 z M 375.4375 890.03125 C 375.13993 890.07915 374.79735 890.23683 374.53125 890.5 C 373.99905 891.02634 373.87404 891.77611 374.25 892.15625 C 374.62596 892.53639 375.37405 892.40134 375.90625 891.875 C 376.43845 891.34866 376.56346 890.63014 376.1875 890.25 C 375.99952 890.05993 375.73507 889.98335 375.4375 890.03125 z M 530.46875 893.40625 C 529.9356 893.42412 529.31015 893.72255 528.84375 894.25 C 528.0975 895.09392 527.99095 896.21697 528.59375 896.75 C 529.19655 897.28303 530.285 897.03142 531.03125 896.1875 C 531.7775 895.34358 531.9153 894.22053 531.3125 893.6875 C 531.08645 893.48761 530.78864 893.39553 530.46875 893.40625 z M 415.3125 894.71875 C 415.14495 894.72639 414.956 894.75088 414.78125 894.8125 C 414.08225 895.05896 413.66771 895.68821 413.84375 896.1875 C 414.01979 896.68679 414.7385 896.87146 415.4375 896.625 C 416.1365 896.37854 416.55104 895.78054 416.375 895.28125 C 416.24297 894.90678 415.81515 894.69582 415.3125 894.71875 z M 704.59375 901.375 C 704.3032 901.40417 704.05511 901.51054 703.875 901.71875 C 703.3947 902.27397 703.62895 903.29633 704.40625 903.96875 C 705.18355 904.64117 706.2072 904.71147 706.6875 904.15625 C 707.1678 903.60103 706.93355 902.60992 706.15625 901.9375 C 705.67043 901.51724 705.07801 901.32638 704.59375 901.375 z M 345.28125 931.375 C 344.96958 931.41981 344.72208 931.56446 344.59375 931.8125 C 344.3371 932.30858 344.68048 932.98443 345.375 933.34375 C 346.06952 933.70307 346.8371 933.62108 347.09375 933.125 C 347.3504 932.62892 347.00702 931.92182 346.3125 931.5625 C 345.96524 931.38284 345.59292 931.33019 345.28125 931.375 z M 565.3125 932.65625 C 564.68587 932.6845 564.08254 933.31661 563.875 934.1875 C 563.63781 935.1828 564.03907 936.14308 564.75 936.3125 C 565.46093 936.48192 566.23156 935.8078 566.46875 934.8125 C 566.70594 933.8172 566.30468 932.85692 565.59375 932.6875 C 565.50488 932.66632 565.40202 932.65221 565.3125 932.65625 z M 451.3125 959.5625 C 451.13034 959.58256 450.958 959.64069 450.8125 959.75 C 450.2305 960.18725 450.26285 961.21645 450.875 962.03125 C 451.48715 962.84605 452.44925 963.12475 453.03125 962.6875 C 453.61325 962.25025 453.5809 961.2523 452.96875 960.4375 C 452.50964 959.8264 451.85899 959.50231 451.3125 959.5625 z M 138.4375 971.46875 C 137.7726 971.46875 137.25 972.22539 137.25 973.15625 C 137.25 974.08711 137.7726 974.84375 138.4375 974.84375 C 139.1024 974.84375 139.65625 974.08711 139.65625 973.15625 C 139.65625 972.22539 139.1024 971.46875 138.4375 971.46875 z M 612.0625 1009.3125 C 611.65078 1009.3148 611.27312 1009.4517 611.0625 1009.75 C 610.64126 1010.3466 610.9772 1011.3166 611.8125 1011.9062 C 612.6478 1012.496 613.67251 1012.4716 614.09375 1011.875 C 614.51499 1011.2784 614.17905 1010.3397 613.34375 1009.75 C 612.9261 1009.4551 612.47422 1009.3102 612.0625 1009.3125 z "
       id="path5141" />
    <path
       style="fill:#ffffff;fill-rule:evenodd;stroke:#000000;stroke-width:1px;stroke-linecap:butt;stroke-linejoin:miter;stroke-opacity:1"
       d="M 255.09375 131.40625 C 254.71796 131.43922 254.29564 131.56309 253.90625 131.78125 C 252.86787 132.36301 252.36216 133.4015 252.75 134.09375 C 253.13784 134.786 254.27412 134.86301 255.3125 134.28125 C 256.35088 133.69949 256.88784 132.661 256.5 131.96875 C 256.2576 131.53609 255.72007 131.3513 255.09375 131.40625 z M 157.96875 139.21875 C 157.49305 139.26588 156.98714 139.43614 156.5 139.71875 C 155.20096 140.47236 154.56009 141.79022 155.0625 142.65625 C 155.56491 143.52228 157.01346 143.62861 158.3125 142.875 C 159.61154 142.12139 160.25241 140.80353 159.75 139.9375 C 159.4988 139.50449 159.02777 139.25558 158.4375 139.21875 C 158.28993 139.20954 158.12732 139.20304 157.96875 139.21875 z M 438.53125 155.9375 C 438.28752 155.94425 438.04078 155.99221 437.84375 156.125 C 437.05564 156.65618 437.07823 158.03658 437.875 159.21875 C 438.67177 160.40092 439.93064 160.93743 440.71875 160.40625 C 441.50686 159.87507 441.51552 158.49467 440.71875 157.3125 C 440.12117 156.42587 439.26243 155.91725 438.53125 155.9375 z M 340.875 168.46875 C 340.53843 168.46016 340.25783 168.57949 340.09375 168.8125 C 339.7656 169.27852 340.08222 170.03902 340.78125 170.53125 C 341.48028 171.02348 342.29685 171.05977 342.625 170.59375 C 342.95315 170.12773 342.66778 169.33598 341.96875 168.84375 C 341.61923 168.59764 341.21157 168.47734 340.875 168.46875 z M 333.4375 179.3125 C 332.95325 179.32329 332.39839 179.58697 331.9375 180.0625 C 331.20008 180.82334 331.02402 181.82089 331.53125 182.3125 C 332.03848 182.80411 333.04383 182.60459 333.78125 181.84375 C 334.51867 181.08291 334.69473 180.05411 334.1875 179.5625 C 333.99729 179.37815 333.72805 179.30603 333.4375 179.3125 z M 477.6875 181.59375 C 477.61408 181.58874 477.5414 181.60801 477.46875 181.625 C 476.88755 181.76092 476.57737 182.5657 476.78125 183.4375 C 476.98513 184.3093 477.6063 184.91717 478.1875 184.78125 C 478.7687 184.64533 479.07888 183.8093 478.875 182.9375 C 478.6966 182.17467 478.20146 181.6288 477.6875 181.59375 z M 189.75 202.65625 C 189.51204 202.66957 189.2826 202.73981 189.09375 202.875 C 188.33833 203.41575 188.40763 204.77312 189.21875 205.90625 C 190.02987 207.03938 191.27583 207.54075 192.03125 207 C 192.78667 206.45925 192.74862 205.10188 191.9375 203.96875 C 191.32916 203.1189 190.46388 202.6163 189.75 202.65625 z M 256.03125 207.625 C 255.49029 207.59098 254.88459 208.10375 254.59375 208.875 C 254.26136 209.75643 254.47488 210.65341 255.0625 210.875 C 255.65012 211.09659 256.41761 210.53768 256.75 209.65625 C 257.08239 208.77482 256.86887 207.90909 256.28125 207.6875 C 256.2078 207.6598 256.10853 207.62986 256.03125 207.625 z M 80.3125 234.84375 C 79.586018 234.90178 79.010889 235.28306 78.90625 235.8125 C 78.766731 236.51841 79.534878 237.25947 80.59375 237.46875 C 81.652622 237.67803 82.610481 237.26841 82.75 236.5625 C 82.889519 235.85659 82.152622 235.11553 81.09375 234.90625 C 80.829032 234.85393 80.554661 234.82441 80.3125 234.84375 z M 268.21875 250.40625 C 267.11864 250.38358 266.21365 250.89484 266.09375 251.65625 C 265.95672 252.52644 266.88222 253.41946 268.1875 253.625 C 269.49278 253.83054 270.67547 253.27644 270.8125 252.40625 C 270.94953 251.53606 269.99278 250.67429 268.6875 250.46875 C 268.52434 250.44306 268.37591 250.40949 268.21875 250.40625 z M 98.90625 260.125 C 98.43836 260.1553 97.89498 260.42745 97.46875 260.90625 C 96.786783 261.67234 96.645525 262.67036 97.15625 263.125 C 97.666975 263.57964 98.630533 263.32859 99.3125 262.5625 C 99.994467 261.79641 100.13573 260.79839 99.625 260.34375 C 99.433478 260.17326 99.186984 260.10682 98.90625 260.125 z M 206.6875 276.03125 C 206.24999 276.06841 205.76549 276.43089 205.46875 277 C 205.07309 277.75881 205.18163 278.61123 205.6875 278.875 C 206.19337 279.13877 206.91684 278.72756 207.3125 277.96875 C 207.70816 277.20994 207.63087 276.38877 207.125 276.125 C 206.99853 276.05906 206.83334 276.01886 206.6875 276.03125 z M 359.375 276.40625 C 358.70725 276.43231 357.9373 276.80215 357.3125 277.46875 C 356.31283 278.53531 356.07021 279.95855 356.78125 280.625 C 357.49229 281.29145 358.87533 280.97281 359.875 279.90625 C 360.87467 278.83969 361.11729 277.41645 360.40625 276.75 C 360.13961 276.50008 359.77565 276.39061 359.375 276.40625 z M 232.59375 282.75 C 231.56491 282.76694 230.75584 284.01924 230.78125 285.5625 C 230.80666 287.10576 231.65866 288.32944 232.6875 288.3125 C 233.71634 288.29556 234.52541 287.04326 234.5 285.5 C 234.47459 283.95674 233.62259 282.73306 232.59375 282.75 z M 62.875 291.4375 C 62.565114 291.44753 62.28563 291.57378 62.09375 291.78125 C 61.582069 292.3345 61.857626 293.38873 62.6875 294.15625 C 63.517374 294.92377 64.613319 295.11575 65.125 294.5625 C 65.636681 294.00925 65.361124 292.92377 64.53125 292.15625 C 64.012579 291.67655 63.391477 291.42078 62.875 291.4375 z M 212.5625 301.5 C 211.96755 301.49073 211.44212 301.67909 211.15625 302.09375 C 210.58451 302.92308 211.13101 304.29864 212.375 305.15625 C 213.61899 306.01386 215.11576 306.04808 215.6875 305.21875 C 216.25924 304.38942 215.71274 303.01386 214.46875 302.15625 C 213.84675 301.72745 213.15745 301.50927 212.5625 301.5 z M 300.25 306.21875 C 299.69866 306.27453 299.32258 306.98549 299.40625 307.8125 C 299.48992 308.63951 300.01116 309.27453 300.5625 309.21875 C 301.11384 309.16297 301.48992 308.45201 301.40625 307.625 C 301.32258 306.79799 300.80134 306.16297 300.25 306.21875 z M 549.03125 313.03125 C 548.75999 313.03007 548.44365 313.1227 548.15625 313.3125 C 547.58145 313.6921 547.30943 314.3043 547.5625 314.6875 C 547.81557 315.0707 548.4877 315.09835 549.0625 314.71875 C 549.6373 314.33915 549.90932 313.6957 549.65625 313.3125 C 549.52972 313.1209 549.30251 313.03243 549.03125 313.03125 z M 115.78125 320 C 115.56623 319.99646 115.35594 320.03272 115.125 320.09375 C 114.20124 320.33788 113.58725 321.00916 113.75 321.625 C 113.91275 322.24084 114.79499 322.55663 115.71875 322.3125 C 116.64251 322.06837 117.2565 321.36584 117.09375 320.75 C 116.97169 320.28812 116.42631 320.01063 115.78125 320 z M 295.84375 328.90625 C 295.52479 328.91064 295.2326 329.00901 295.03125 329.21875 C 294.49431 329.77806 294.72353 330.88209 295.5625 331.6875 C 296.40147 332.49291 297.52556 332.68431 298.0625 332.125 C 298.59944 331.56569 298.37022 330.46166 297.53125 329.65625 C 297.00689 329.15287 296.37535 328.89893 295.84375 328.90625 z M 438.90625 332.5 C 438.67477 332.53216 438.45493 332.63394 438.28125 332.78125 C 437.58653 333.37049 437.74114 334.67667 438.625 335.71875 C 439.50886 336.76083 440.80528 337.12049 441.5 336.53125 C 442.19472 335.94201 442.04011 334.63583 441.15625 333.59375 C 440.49335 332.81219 439.60068 332.40351 438.90625 332.5 z M 262.75 341.125 C 262.67745 341.13902 262.59839 341.17879 262.53125 341.21875 C 261.9941 341.53843 261.92673 342.47553 262.40625 343.28125 C 262.88577 344.08697 263.71285 344.47593 264.25 344.15625 C 264.78715 343.83657 264.85452 342.89947 264.375 342.09375 C 264.01536 341.48946 263.44964 341.13872 262.96875 341.125 C 262.8886 341.12271 262.82255 341.11098 262.75 341.125 z M 137.5625 342.15625 C 137.37752 342.17549 137.20467 342.2626 137.0625 342.375 C 136.49383 342.82461 136.57558 343.86575 137.25 344.71875 C 137.92442 345.57175 138.93133 345.88711 139.5 345.4375 C 140.06867 344.98789 139.98692 343.94675 139.3125 343.09375 C 138.80669 342.454 138.11744 342.09853 137.5625 342.15625 z M 469.625 344.78125 C 469.26682 344.81907 468.98529 344.97998 468.84375 345.25 C 468.56068 345.79004 468.97119 346.57539 469.78125 347 C 470.59131 347.42461 471.49818 347.32129 471.78125 346.78125 C 472.06432 346.24121 471.62256 345.48711 470.8125 345.0625 C 470.40747 344.85019 469.98318 344.74343 469.625 344.78125 z M 375.0625 354.3125 C 374.81686 354.30643 374.59869 354.37577 374.4375 354.53125 C 374.00765 354.94585 374.15934 355.82397 374.78125 356.46875 C 375.40316 357.11353 376.25765 357.2896 376.6875 356.875 C 377.11735 356.4604 376.96566 355.58228 376.34375 354.9375 C 375.95506 354.53451 375.47189 354.32261 375.0625 354.3125 z M 296.625 355.96875 C 295.91176 355.92707 295.28128 356.77389 295.21875 357.84375 C 295.15622 358.91361 295.69301 359.80207 296.40625 359.84375 C 297.11949 359.88543 297.74997 359.03861 297.8125 357.96875 C 297.87503 356.89889 297.33824 356.01043 296.625 355.96875 z M 212.96875 383.8125 C 211.70209 383.78253 210.67199 384.37367 210.53125 385.25 C 210.37041 386.25152 211.43522 387.25874 212.9375 387.5 C 214.43978 387.74126 215.80791 387.12652 215.96875 386.125 C 216.12959 385.12348 215.03353 384.11626 213.53125 383.875 C 213.34347 383.84484 213.1497 383.81678 212.96875 383.8125 z M 191.8125 400.96875 C 191.29278 400.9968 190.68486 401.43031 190.3125 402.09375 C 189.81601 402.97834 189.91028 403.95026 190.5 404.28125 C 191.08972 404.61224 191.97226 404.16584 192.46875 403.28125 C 192.96524 402.39666 192.87097 401.42474 192.28125 401.09375 C 192.13382 401.011 191.98574 400.9594 191.8125 400.96875 z M 321.84375 401.65625 C 320.98347 401.72061 320.31452 402.12393 320.1875 402.75 C 320.01815 403.58476 320.90411 404.49597 322.15625 404.75 C 323.40839 405.00403 324.5494 404.52226 324.71875 403.6875 C 324.8881 402.85274 324.00214 401.97278 322.75 401.71875 C 322.43697 401.65524 322.13051 401.6348 321.84375 401.65625 z M 578.21875 405.40625 C 577.92203 405.43584 577.63952 405.5698 577.46875 405.78125 C 577.01337 406.34511 577.34171 407.34819 578.1875 408.03125 C 579.03329 408.71431 580.07587 408.81386 580.53125 408.25 C 580.98663 407.68614 580.68954 406.68306 579.84375 406 C 579.31513 405.57309 578.71329 405.35693 578.21875 405.40625 z M 210.4375 411.4375 C 210.0059 411.43198 209.50104 411.75285 209.15625 412.28125 C 208.69652 412.98578 208.68657 413.78727 209.15625 414.09375 C 209.62593 414.40023 210.38402 414.07953 210.84375 413.375 C 211.30348 412.67047 211.31343 411.86898 210.84375 411.5625 C 210.72633 411.48588 210.58137 411.43934 210.4375 411.4375 z M 288.09375 412.09375 C 287.44531 412.2069 286.8436 412.97557 286.71875 413.96875 C 286.57606 415.10381 287.08704 416.12362 287.84375 416.21875 C 288.60046 416.31388 289.32606 415.44756 289.46875 414.3125 C 289.61144 413.17744 289.13171 412.18888 288.375 412.09375 C 288.28041 412.08186 288.18638 412.07759 288.09375 412.09375 z M 326 414.75 C 325.80315 414.75586 325.62767 414.82991 325.46875 414.9375 C 324.83309 415.36785 324.82323 416.484 325.46875 417.4375 C 326.11427 418.391 327.14559 418.80535 327.78125 418.375 C 328.41691 417.94465 328.42677 416.8285 327.78125 415.875 C 327.29711 415.15988 326.59054 414.73242 326 414.75 z M 618.5 433.03125 C 617.87265 432.9861 617.31451 433.2182 617.15625 433.65625 C 616.94524 434.24031 617.49891 434.96474 618.375 435.28125 C 619.25109 435.59776 620.13274 435.39656 620.34375 434.8125 C 620.55476 434.22844 620.00109 433.50401 619.125 433.1875 C 618.90598 433.10837 618.70912 433.0463 618.5 433.03125 z M 651.03125 449.28125 C 650.3058 449.36747 649.49727 449.89417 648.90625 450.71875 C 648.00565 451.97525 647.94358 453.4621 648.78125 454.0625 C 649.61892 454.6629 651.0369 454.1315 651.9375 452.875 C 652.8381 451.6185 652.90017 450.13165 652.0625 449.53125 C 651.85308 449.38115 651.60773 449.29618 651.34375 449.28125 C 651.24476 449.27565 651.13489 449.26893 651.03125 449.28125 z M 588.75 481.3125 C 587.56571 481.42008 586.66247 482.07407 586.625 482.90625 C 586.58218 483.85731 587.69841 484.68577 589.125 484.75 C 590.55159 484.81423 591.73843 484.10731 591.78125 483.15625 C 591.82407 482.20519 590.70784 481.37673 589.28125 481.3125 C 589.10293 481.30447 588.91918 481.29713 588.75 481.3125 z M 518.65625 482.625 C 518.12166 482.6289 517.4995 482.83812 516.9375 483.21875 C 515.81349 483.98 515.33625 485.18816 515.84375 485.9375 C 516.35125 486.68684 517.65724 486.69875 518.78125 485.9375 C 519.90526 485.17625 520.41375 483.93684 519.90625 483.1875 C 519.6525 482.81283 519.19084 482.6211 518.65625 482.625 z M 287.8125 526.53125 C 287.38516 526.52487 287.02772 526.66434 286.75 526.9375 C 286.00941 527.66592 286.28237 529.13911 287.375 530.25 C 288.46763 531.36089 289.94691 531.66592 290.6875 530.9375 C 291.42809 530.20908 291.15513 528.73589 290.0625 527.625 C 289.37961 526.9307 288.52473 526.54188 287.8125 526.53125 z M 350.8125 585.75 C 350.11614 585.80322 349.31405 586.24824 348.6875 586.96875 C 347.68501 588.12156 347.51271 589.58167 348.28125 590.25 C 349.04979 590.91833 350.49751 590.52781 351.5 589.375 C 352.50249 588.22219 352.67479 586.76208 351.90625 586.09375 C 351.61805 585.84313 351.23031 585.71807 350.8125 585.75 z M 627.0625 618.125 C 626.67617 618.16925 626.37487 618.31478 626.15625 618.59375 C 625.57325 619.33766 625.97789 620.65676 627.09375 621.53125 C 628.20961 622.40574 629.6045 622.52516 630.1875 621.78125 C 630.7705 621.03734 630.33461 619.71824 629.21875 618.84375 C 628.52134 618.29719 627.70638 618.05126 627.0625 618.125 z M 417.875 620.15625 C 417.37509 620.1163 416.77486 620.34006 416.25 620.78125 C 415.41023 621.48715 415.12315 622.50265 415.59375 623.0625 C 416.06435 623.62235 417.12898 623.5184 417.96875 622.8125 C 418.80852 622.1066 419.0956 621.05985 418.625 620.5 C 418.44852 620.29006 418.17495 620.18022 417.875 620.15625 z M 576.65625 627.40625 C 576.08687 627.49075 575.64795 627.82721 575.59375 628.25 C 575.52148 628.81372 576.15443 629.36034 577 629.46875 C 577.84557 629.57716 578.58398 629.18872 578.65625 628.625 C 578.72852 628.06128 578.09557 627.51466 577.25 627.40625 C 577.03861 627.37915 576.84604 627.37808 576.65625 627.40625 z M 573.25 642.25 C 572.39304 642.37689 571.60418 643.38506 571.40625 644.6875 C 571.18005 646.17601 571.78891 647.50545 572.78125 647.65625 C 573.77359 647.80705 574.7738 646.70726 575 645.21875 C 575.2262 643.73024 574.61734 642.4008 573.625 642.25 C 573.50096 642.23115 573.37242 642.23187 573.25 642.25 z M 79.0625 647.65625 C 78.716299 647.65772 78.369671 647.70657 78 647.8125 C 76.521317 648.23622 75.530018 649.38921 75.8125 650.375 C 76.094982 651.36079 77.552567 651.79872 79.03125 651.375 C 80.509933 650.95128 81.469982 649.79829 81.1875 648.8125 C 80.975638 648.07316 80.101103 647.65185 79.0625 647.65625 z M 522.03125 652.53125 C 521.92208 652.52519 521.82636 652.5359 521.71875 652.5625 C 520.85789 652.77528 520.43082 653.98997 520.75 655.28125 C 521.06918 656.57253 522.01414 657.43153 522.875 657.21875 C 523.73586 657.00597 524.16293 655.79128 523.84375 654.5 C 523.56447 653.37013 522.79542 652.5737 522.03125 652.53125 z M 162.53125 672.34375 C 161.78503 672.42002 161.06586 673.25612 160.84375 674.375 C 160.58991 675.65372 161.08502 676.83078 161.9375 677 C 162.78998 677.16922 163.68366 676.27872 163.9375 675 C 164.19134 673.72128 163.72748 672.54422 162.875 672.375 C 162.76844 672.35385 162.63785 672.33285 162.53125 672.34375 z M 396.3125 723.21875 C 396.22825 723.21654 396.14192 723.2332 396.0625 723.25 C 395.97174 723.2692 395.89475 723.29814 395.8125 723.34375 C 395.15447 723.70864 395.04642 724.82545 395.59375 725.8125 C 396.14108 726.79955 397.12322 727.30239 397.78125 726.9375 C 398.43928 726.57261 398.54733 725.4558 398 724.46875 C 397.58095 723.71304 396.90225 723.23421 396.3125 723.21875 z M 131.59375 747 C 131.21575 747.03748 130.81043 747.22544 130.4375 747.53125 C 129.69163 748.14287 129.40475 749.034 129.8125 749.53125 C 130.22025 750.0285 131.16038 749.95537 131.90625 749.34375 C 132.65212 748.73213 132.90775 747.80975 132.5 747.3125 C 132.29613 747.06388 131.97175 746.96252 131.59375 747 z M 291.90625 763.9375 C 291.56109 763.98448 291.28424 764.15225 291.09375 764.40625 C 290.58577 765.08359 290.98399 766.23804 292 767 C 293.01601 767.76196 294.24202 767.83359 294.75 767.15625 C 295.25798 766.47891 294.85976 765.32446 293.84375 764.5625 C 293.20875 764.08627 292.48151 763.8592 291.90625 763.9375 z M 420.71875 766.15625 C 420.62594 766.15616 420.55873 766.15997 420.46875 766.1875 C 419.74892 766.40771 419.41969 767.45151 419.75 768.53125 C 420.08031 769.61099 420.93642 770.31396 421.65625 770.09375 C 422.37608 769.87354 422.67406 768.82974 422.34375 767.75 C 422.05473 766.80523 421.36844 766.15686 420.71875 766.15625 z M 238.125 773.71875 C 237.40594 773.67534 236.52269 774.00798 235.78125 774.65625 C 234.59495 775.69348 234.18351 777.17789 234.875 777.96875 C 235.56649 778.75961 237.09495 778.56848 238.28125 777.53125 C 239.46755 776.49402 239.87899 775.00961 239.1875 774.21875 C 238.92819 773.92218 238.55643 773.74479 238.125 773.71875 z M 270.96875 789.4375 C 269.62641 789.45555 268.55047 790.19886 268.5625 791.09375 C 268.57453 791.98864 269.65766 792.70555 271 792.6875 C 272.34234 792.66945 273.44953 791.92614 273.4375 791.03125 C 273.42547 790.13636 272.31109 789.41945 270.96875 789.4375 z M 540.90625 810.71875 C 540.22454 810.72234 539.40995 811.09186 538.75 811.75 C 537.69407 812.80303 537.42298 814.2023 538.125 814.90625 C 538.82702 815.6102 540.25657 815.33428 541.3125 814.28125 C 542.36843 813.22822 542.63952 811.7977 541.9375 811.09375 C 541.67424 810.82977 541.31527 810.71659 540.90625 810.71875 z M 756.6875 813.1875 C 756.52314 813.199 756.35974 813.25066 756.1875 813.3125 C 755.49853 813.55988 755.05383 814.13443 755.21875 814.59375 C 755.38367 815.05307 756.09228 815.21613 756.78125 814.96875 C 757.47022 814.72137 757.88367 814.14682 757.71875 813.6875 C 757.59506 813.34301 757.18058 813.15299 756.6875 813.1875 z M 254.3125 818.90625 C 253.87406 818.94988 253.4012 819.14513 252.96875 819.5 C 252.10385 820.20975 251.77683 821.2359 252.25 821.8125 C 252.72317 822.3891 253.8226 822.3035 254.6875 821.59375 C 255.5524 820.884 255.84817 819.8266 255.375 819.25 C 255.13842 818.9617 254.75094 818.86262 254.3125 818.90625 z M 175.5625 833.3125 C 175.49399 833.32962 175.40505 833.36928 175.34375 833.40625 C 174.85334 833.70203 174.83758 834.54564 175.28125 835.28125 C 175.72492 836.01686 176.47834 836.35828 176.96875 836.0625 C 177.45916 835.76672 177.47492 834.92311 177.03125 834.1875 C 176.64303 833.54384 176.04204 833.19265 175.5625 833.3125 z M 310.6875 841.4375 C 310.2355 841.52186 309.96722 842.1345 310.09375 842.8125 C 310.22028 843.4905 310.70425 843.95936 311.15625 843.875 C 311.60825 843.79064 311.84528 843.178 311.71875 842.5 C 311.59222 841.822 311.1395 841.35314 310.6875 841.4375 z M 94.125 852.625 C 93.79512 852.66112 93.500255 852.79411 93.3125 853.03125 C 92.81182 853.66363 93.176431 854.78023 94.125 855.53125 C 95.073569 856.28227 96.24932 856.38238 96.75 855.75 C 97.25068 855.11762 96.886069 854.00102 95.9375 853.25 C 95.344645 852.78061 94.6748 852.5648 94.125 852.625 z M 261.28125 862.125 C 261.05552 862.14586 260.8311 862.20874 260.65625 862.34375 C 259.95685 862.88378 260.06495 864.16965 260.875 865.21875 C 261.68505 866.26785 262.89435 866.69628 263.59375 866.15625 C 264.29315 865.61622 264.2163 864.2991 263.40625 863.25 C 262.79871 862.46318 261.95843 862.06242 261.28125 862.125 z M 141.5625 868.46875 C 140.85787 868.4695 140.12583 869.16279 139.8125 870.1875 C 139.4544 871.3586 139.78177 872.51127 140.5625 872.75 C 141.34323 872.98873 142.2669 872.2336 142.625 871.0625 C 142.9831 869.8914 142.65573 868.73873 141.875 868.5 C 141.77741 868.47016 141.66316 868.46864 141.5625 868.46875 z M 32 871.21875 C 30.871629 871.21875 29.96875 871.81025 29.96875 872.5625 C 29.96875 873.31475 30.871629 873.9375 32 873.9375 C 33.128371 873.9375 34.0625 873.31475 34.0625 872.5625 C 34.0625 871.81025 33.128371 871.21875 32 871.21875 z M 215.15625 917 C 214.64893 917.05736 214.06361 917.3945 213.625 917.9375 C 212.92322 918.8063 212.82705 919.87589 213.40625 920.34375 C 213.98545 920.81161 215.04822 920.4938 215.75 919.625 C 216.45178 918.7562 216.54795 917.68661 215.96875 917.21875 C 215.75155 917.0433 215.46064 916.96558 215.15625 917 z M 248.9375 939.75 C 248.65832 939.7544 248.39463 939.84731 248.21875 940.03125 C 247.74975 940.52176 247.98298 941.51525 248.71875 942.21875 C 249.45452 942.92225 250.43725 943.08426 250.90625 942.59375 C 251.37525 942.10324 251.14202 941.141 250.40625 940.4375 C 249.94639 939.99781 249.4028 939.74266 248.9375 939.75 z M 469 952.3125 C 468.49187 952.41456 468.22191 953.1128 468.375 953.875 C 468.52809 954.6372 469.05437 955.16456 469.5625 955.0625 C 470.07063 954.96044 470.37184 954.2622 470.21875 953.5 C 470.06566 952.7378 469.50813 952.21044 469 952.3125 z M 368.6875 956.4375 C 367.88264 956.52884 367.22627 956.9228 367.03125 957.53125 C 366.71922 958.50477 367.66472 959.6882 369.125 960.15625 C 370.58528 960.6243 372.03172 960.22352 372.34375 959.25 C 372.65578 958.27648 371.71028 957.09305 370.25 956.625 C 369.70239 956.44948 369.17042 956.38269 368.6875 956.4375 z M 456.3125 957.84375 C 455.90723 957.82454 455.40357 958.10858 455.0625 958.59375 C 454.60774 959.24064 454.59999 960.00933 455.03125 960.3125 C 455.46251 960.61567 456.17024 960.33439 456.625 959.6875 C 457.07976 959.04061 457.11876 958.27192 456.6875 957.96875 C 456.57968 957.89296 456.44759 957.85015 456.3125 957.84375 z M 321.5625 960.3125 C 321.44632 960.31984 321.36042 960.33332 321.25 960.375 C 320.36664 960.70845 320.03108 962.04997 320.53125 963.375 C 321.03142 964.70003 322.14789 965.52095 323.03125 965.1875 C 323.91461 964.85405 324.25017 963.48128 323.75 962.15625 C 323.31235 960.99684 322.37579 960.26109 321.5625 960.3125 z M 316.65625 993.90625 C 316.55832 993.9062 316.44568 993.92109 316.34375 993.9375 C 315.66424 994.04688 314.93124 994.52227 314.375 995.28125 C 313.48502 996.49562 313.40917 997.96918 314.21875 998.5625 C 315.02833 999.15582 316.42252 998.65187 317.3125 997.4375 C 318.20248 996.22313 318.24708 994.74957 317.4375 994.15625 C 317.20981 993.98938 316.95005 993.9064 316.65625 993.90625 z M 224.28125 1024.625 C 223.46474 1024.6209 222.81524 1025.0494 222.8125 1025.5938 C 222.80976 1026.1327 223.46474 1026.5856 224.28125 1026.5938 C 225.09776 1026.5974 225.77851 1026.1693 225.78125 1025.625 C 225.78399 1025.0807 225.09776 1024.6291 224.28125 1024.625 z M 373.8125 1029.6875 C 372.92364 1029.7647 372.22977 1030.3201 372.28125 1030.9062 C 372.33273 1031.4995 373.11114 1031.8897 374 1031.8125 C 374.88886 1031.7353 375.55148 1031.2176 375.5 1030.625 C 375.44852 1030.0324 374.70136 1029.6103 373.8125 1029.6875 z "
       id="path4853" />
    <path
       id="path4773"
       d="m 741.41325,426.55182 c -0.0179,-2.14193 -0.28456,-4.23268 -0.83,-6.26829 -13.66926,-51.01435 -190.19505,-48.02886 -394.2525,6.64816 -204.05744,54.67702 -358.394303,140.34593 -344.7250493,191.36027 0.3203725,1.19565 0.7478366,2.36995 1.2453669,3.50634 L 61.856396,605.98788 C 61.321872,604.85733 60.869632,603.7003 60.547618,602.49852 49.058675,559.62121 178.77192,487.63087 350.28124,441.67509 c 171.5093,-45.95577 319.87115,-48.47545 331.36008,-5.59812 0.32203,1.20178 0.50894,2.42989 0.61125,3.67625 l 58.49803,-15.67449 0.66265,2.47309 z"
       style="fill:#ff7f2a;fill-rule:evenodd;stroke:#000000;stroke-width:0;stroke-linecap:butt;stroke-linejoin:miter;stroke-miterlimit:4;stroke-opacity:1;stroke-dasharray:none"
       inkscape:connector-curvature="0" />
    <path
       style="fill:url(#radialGradient4729);fill-opacity:1;fill-rule:evenodd;stroke:#000000;stroke-width:0.89799994000000005;stroke-linecap:butt;stroke-linejoin:miter;stroke-miterlimit:4;stroke-opacity:1;stroke-dasharray:none"
       d="M 372.0625 263.25 C 271.32564 263.25 183.84181 319.90936 139.6875 403.09375 C 139.54353 403.84926 139.38261 404.58589 139.0625 405.28125 C 138.24828 407.04991 137.67057 406.53792 138.25 407.03125 C 137.76236 408.12475 137.24768 409.20026 136.75 410.28125 C 136.58325 410.64345 136.39944 410.98832 136.21875 411.34375 C 136.25733 411.22689 136.30373 411.11631 136.34375 411 C 135.92429 411.90487 135.37917 412.773 135.0625 413.71875 C 134.9702 413.99439 135.43814 413.25465 135.65625 413.0625 C 135.68585 413.0365 135.73315 413.11955 135.71875 413.15625 C 135.37827 414.02151 134.99003 414.84634 134.59375 415.6875 C 133.99179 416.96521 133.61441 417.30531 132.65625 418.5625 C 131.8706 419.52357 131.37541 420.6461 130.78125 421.71875 C 130.64089 421.97214 130.59377 422.05802 130.5 422.21875 C 116.75451 454.11029 109.125 489.25552 109.125 526.1875 C 109.125 553.79576 113.39054 580.40526 121.28125 605.40625 C 121.62136 605.45577 121.56833 606.07051 121.625 606.46875 C 125.65633 619.05399 130.60979 631.22587 136.40625 642.90625 C 136.95573 643.48193 137.51385 644.07142 137.9375 644.75 C 139.20951 646.78742 140.06845 649.0371 140.78125 651.3125 C 160.93587 688.49264 189.76639 720.26847 224.59375 743.90625 C 225.94507 744.29327 227.38133 744.794 228.625 745.53125 C 228.70003 745.55205 228.77897 745.58659 228.78125 745.625 C 229.82342 746.27041 230.68828 747.09247 231.15625 748.1875 C 271.88676 774.09322 320.218 789.125 372.0625 789.125 C 421.67828 789.125 468.09382 775.38798 507.6875 751.5 C 508.77816 749.92697 510.72486 748.56249 513.59375 747.8125 C 553.30189 722.39936 585.7176 686.59486 607.03125 644.25 C 607.19026 641.83025 608.11516 639.89768 609.65625 637.4375 C 609.98027 636.30382 610.27801 635.21401 610.875 634.09375 C 612.04781 632.13826 613.40091 630.28681 614.4375 628.25 C 627.66104 596.87187 634.96875 562.37915 634.96875 526.1875 C 634.96875 380.97555 517.27445 263.25 372.0625 263.25 z M 609.59375 637.625 C 609.52711 637.75415 609.45682 637.89516 609.40625 638.03125 C 609.35535 638.16813 609.29785 638.60738 609.34375 638.46875 C 609.44114 638.17434 609.51161 637.90805 609.59375 637.625 z "
       id="path2992" />
    <path
       style="fill:#aa4400;fill-rule:evenodd;stroke:#000000;stroke-width:1.07488107999999990px;stroke-linecap:butt;stroke-linejoin:miter;stroke-opacity:1;filter:url(#filter4059)"
       d="m 110.77588,531.85498 c -1.42191,1.84509 -2.15625,3.71502 -2.15625,5.62476 0,24.11767 116.93591,43.67465 261.1875,43.67465 144.25158,0 261.1875,-19.55698 261.1875,-43.67465 0,-1.90974 1.98979,-5.14173 0.56788,-6.98682 l -0.0497,-19.32807 c 1.65124,1.83138 -13.84477,24.40662 -13.84477,26.31489 0,20.62446 -124.50277,37.35139 -247.86091,37.35139 -123.35815,0 -236.99564,-14.96984 -236.99564,-35.59429 0,-1.90827 -20.94476,-19.60726 -19.29303,-21.43865 z"
       id="path3780"
       inkscape:connector-curvature="0"
       sodipodi:nodetypes="csssccssscc" />
    <path
       sodipodi:nodetypes="csssccssscc"
       inkscape:connector-curvature="0"
       id="path3795"
       d="m 114.86207,486.90686 c -1.42191,1.84509 -2.15625,3.71502 -2.15625,5.62476 0,24.11767 116.93591,43.67465 261.1875,43.67465 144.25158,0 253.01511,-18.19492 253.01511,-42.31259 0,-1.90974 4.71392,-5.14173 3.29201,-6.98682 l -2.77382,-19.32807 c 1.65124,1.83138 -12.48271,23.04456 -12.48271,24.95283 0,20.62446 -117.69245,37.35139 -241.05059,37.35139 -123.35815,0 -236.99564,-14.96984 -236.99564,-35.59429 0,-1.90827 -20.94476,-19.60726 -19.29303,-21.43865 z"
       style="fill:#aa4400;fill-rule:evenodd;stroke:#000000;stroke-width:1.07488107999999990px;stroke-linecap:butt;stroke-linejoin:miter;stroke-opacity:1;filter:url(#filter3967)" />
    <path
       sodipodi:nodetypes="csssccssscc"
       inkscape:connector-curvature="0"
       id="path3803"
       d="m 109.41382,515.51021 c -1.42191,1.84509 -2.15625,3.71502 -2.15625,5.62476 0,24.11767 116.93591,43.67465 261.1875,43.67465 144.25158,0 261.1875,-19.55698 261.1875,-43.67465 0,-1.90974 1.98979,-5.14173 0.56788,-6.98682 l -0.0497,-19.32807 c 1.65124,1.83138 -13.84477,24.40662 -13.84477,26.31489 0,20.62446 -124.50277,37.35139 -247.86091,37.35139 -123.35815,0 -236.99564,-14.96984 -236.99564,-35.59429 0,-1.90827 -20.94476,-19.60726 -19.29303,-21.43865 z"
       style="fill:#d45500;fill-rule:evenodd;stroke:#000000;stroke-width:1.07488107999999990px;stroke-linecap:butt;stroke-linejoin:miter;stroke-opacity:1;filter:url(#filter4055)" />
    <path
       style="fill:#d45500;fill-rule:evenodd;stroke:#000000;stroke-width:1.13667655000000000px;stroke-linecap:butt;stroke-linejoin:miter;stroke-opacity:1;filter:url(#filter3975)"
       d="M 635.59375 548.375 L 634.5 551.875 C 635.45057 550.08366 635.92329 548.78372 635.59375 548.375 z M 634.5 551.875 C 630.68747 559.05969 619.03125 574.57313 619.03125 576.28125 C 619.03125 599.34529 501.32689 618.0625 377.96875 618.0625 C 254.6106 618.0625 131.4375 601.31404 131.4375 578.25 C 131.4375 576.38276 119.57835 559.9503 117.71875 554.5 L 118.9375 570 C 117.51559 572.06334 123.59375 582.33311 123.59375 584.46875 C 123.59375 611.4392 233.71716 625.125 377.96875 625.125 C 522.22033 625.125 628.28125 604.6267 628.28125 577.65625 C 628.28125 575.52061 630.26566 572.06334 628.84375 570 L 634.5 551.875 z M 117.71875 554.5 L 117.59375 552.90625 C 117.38728 553.16225 117.45309 553.72139 117.71875 554.5 z "
       id="path3805" />
    <path
       style="fill:#d45500;fill-rule:evenodd;stroke:#000000;stroke-width:1.04595923px;stroke-linecap:butt;stroke-linejoin:miter;stroke-opacity:1;filter:url(#filter4047)"
       d="M 136.15625 411.34375 C 135.77249 412.12386 135.33811 412.89563 135.0625 413.71875 C 134.9702 413.99439 135.43814 413.25465 135.65625 413.0625 C 135.68585 413.0365 135.73315 413.11955 135.71875 413.15625 C 135.37827 414.02151 134.99003 414.84634 134.59375 415.6875 C 133.99179 416.96521 133.61441 417.30531 132.65625 418.5625 C 131.90934 419.47618 131.43049 420.53916 130.875 421.5625 C 158.09477 440.4591 255.04662 454.46875 370.53125 454.46875 C 488.73032 454.46875 587.52729 439.84919 612 420.28125 C 611.31626 417.77457 610.91619 414.88848 610.90625 411.625 C 609.51931 411.6059 608.13616 411.5709 606.75 411.5 C 606.6642 411.496 606.61184 411.44745 606.5625 411.40625 C 599.30109 431.20178 483.61675 448.15625 370.53125 448.15625 C 253.7222 448.15625 136.5625 433.18695 136.5625 412.5625 C 136.5625 412.35979 136.38024 411.90489 136.15625 411.34375 z "
       id="path4261" />
    <path
       style="fill:#d45500;fill-rule:evenodd;stroke:#000000;stroke-width:1.04595923px;stroke-linecap:butt;stroke-linejoin:miter;stroke-opacity:1;filter:url(#filter4047)"
       d="M 597.75 385.0625 C 571.43025 402.00575 468.59905 415.46875 367.8125 415.46875 C 272.80563 415.46875 177.58675 405.5752 145.34375 390.78125 C 145.00546 391.39706 144.68194 392.00914 144.34375 392.625 L 142.75 395.34375 C 142.60427 395.68313 142.54181 395.83592 142.4375 396.0625 C 181.23028 411.22164 267.50024 421.78125 367.8125 421.78125 C 475.59126 421.78125 567.18694 409.60355 601.0625 392.625 C 600.97813 392.03971 600.94018 391.49813 600.90625 390.75 C 600.8959 390.77363 600.87395 390.78425 600.84375 390.78125 C 600.70272 390.76725 600.70195 390.5404 600.65625 390.40625 C 600.33098 389.45158 600.23664 388.5714 600.25 387.65625 C 599.43881 386.80219 598.50091 385.67926 598.09375 385.1875 C 598.12989 385.25445 598.15381 385.31168 598.1875 385.375 C 598.13937 385.31506 598.04446 385.20151 597.96875 385.125 C 597.89739 385.10559 597.82013 385.0858 597.75 385.0625 z M 598.3125 385.25 C 598.39261 385.32788 598.46294 385.39153 598.5625 385.4375 C 598.85302 385.57166 599.43736 385.71041 599.9375 385.78125 C 599.77072 385.61932 599.71164 385.55165 599.59375 385.4375 C 599.16547 385.36675 598.73647 385.33497 598.3125 385.25 z M 600.125 386.125 C 599.93347 386.32394 600.01777 386.66933 600.25 387.03125 C 600.26092 386.85036 600.2963 386.65405 600.3125 386.46875 C 600.24616 386.35362 600.1821 386.24334 600.125 386.125 z "
       id="path4263" />
    <path
       style="fill:#d45500;fill-rule:evenodd;stroke:#000000;stroke-width:1.04595923px;stroke-linecap:butt;stroke-linejoin:miter;stroke-opacity:1;filter:url(#filter4047)"
       d="M 567.1875 294.0625 C 567.04632 294.09305 566.89168 294.12576 566.75 294.15625 C 567.46994 295.0659 568.29771 295.91882 568.90625 296.90625 C 569.34523 297.61853 569.78058 298.33489 570.15625 299.0625 C 569.75622 298.04504 569.43871 297.01685 569.125 295.96875 C 568.47748 295.33591 567.84367 294.68901 567.1875 294.0625 z M 534.21875 299.96875 C 533.37484 300.09487 532.54072 300.21945 531.6875 300.34375 C 532.16768 300.63641 532.65028 300.91727 533.125 301.21875 C 533.24461 301.29471 533.39307 301.34298 533.53125 301.40625 C 533.84087 300.9607 534.23751 300.56202 534.65625 300.1875 C 534.51141 300.11242 534.36336 300.04428 534.21875 299.96875 z M 230.4375 302.1875 C 230.34123 302.22262 230.25276 302.27803 230.15625 302.3125 C 229.43668 302.56949 228.68238 302.75821 227.96875 303.03125 C 227.38834 303.25332 226.90821 303.71208 226.375 304.03125 C 225.60633 304.49136 224.88796 305.0269 224.0625 305.375 C 222.86506 305.87995 221.58018 306.1624 220.34375 306.5625 C 220.2066 306.59713 220.07444 306.65223 219.9375 306.6875 C 262.89722 313.06408 318.20121 316.90625 378.6875 316.90625 C 432.36098 316.90625 481.97952 313.84709 522.5 308.71875 C 521.52474 308.01262 520.55977 307.29547 519.59375 306.59375 C 519.42565 306.44316 518.36014 305.57541 518 305.09375 C 517.96443 305.06485 517.97072 305.02709 517.9375 305 C 517.87174 304.98509 517.6331 304.84902 517.09375 304.5 C 516.59811 303.92306 516.11184 303.30685 515.59375 302.75 C 515.52975 302.6812 515.79901 303.04899 515.71875 303 C 515.53774 302.8895 515.35029 302.73651 515.15625 302.5625 C 474.79317 307.5609 426.53339 310.59375 378.6875 310.59375 C 325.64363 310.59375 272.59862 307.48808 230.4375 302.1875 z "
       id="path4271" />
    <path
       style="fill:#aa4400;fill-rule:evenodd;stroke:#000000;stroke-width:1.13667655px;stroke-linecap:butt;stroke-linejoin:miter;stroke-opacity:1;filter:url(#filter3979)"
       d="M 140.90625 651.71875 C 140.90914 651.72817 140.90337 651.74058 140.90625 651.75 C 141.13984 653.69631 142.21008 655.38617 142.6875 657.25 C 143.21639 659.31477 142.60977 658.17277 143.3125 659.28125 C 143.49902 659.80762 143.68351 660.34005 143.84375 660.875 C 143.90916 661.09336 143.95433 661.31059 144 661.53125 C 143.92404 661.0309 143.88286 660.56925 144.3125 661.9375 C 144.9999 662.68819 145.42684 664.31778 145.59375 664.75 C 145.74567 664.77997 145.9055 665.00469 146 665.25 C 146.18451 665.51213 146.41676 665.86181 146.625 666.1875 C 186.18649 680.52123 273.03271 687.78125 377.96875 687.78125 C 480.51688 687.78125 563.72006 677.43055 603.28125 661.75 C 603.39111 661.52456 603.15294 661.42492 604 659.125 C 604.1719 658.65825 604.24451 658.03823 604.625 657.75 C 604.73968 657.31039 604.86999 656.86977 604.96875 656.53125 C 604.96965 656.38546 604.95848 656.23927 604.96875 656.09375 C 605.07368 654.60542 605.4623 653.29342 606 652.03125 C 572.11033 668.68717 476.86639 680.71875 377.96875 680.71875 C 274.88268 680.71875 171.9609 669.02067 140.90625 651.71875 z "
       id="path4273" />
    <path
       style="fill:#aa4400;fill-rule:evenodd;stroke:#000000;stroke-width:1.13667655px;stroke-linecap:butt;stroke-linejoin:miter;stroke-opacity:1;filter:url(#filter3979)"
       d="M 213.3125 736.8125 C 213.45721 736.89775 213.60746 736.96379 213.75 737.0625 C 214.08416 737.29392 214.38526 737.57075 214.6875 737.84375 C 217.65207 739.1714 214.77432 737.55078 218.125 740.8125 C 218.13357 740.82084 218.14958 740.80639 218.15625 740.8125 C 218.06395 740.65415 217.65002 740.08572 217.5625 739.8125 C 217.48075 739.55732 217.62201 739.6878 217.75 739.84375 C 219.09733 740.80735 220.08815 741.03103 220.875 742.78125 C 220.88878 742.8119 220.8939 742.84393 220.90625 742.875 C 221.30178 742.98946 221.69749 743.10157 222.09375 743.21875 C 223.80862 743.73607 226.53734 744.29368 228.625 745.53125 C 228.70003 745.55205 228.77897 745.58659 228.78125 745.625 C 230.03332 746.4004 231.01519 747.4256 231.375 748.875 C 273.99595 753.53652 327.80449 755.875 387.5 755.875 C 432.26482 755.875 473.29229 753.87206 508.65625 750.34375 C 510.23015 748.86187 512.72494 747.73568 516.21875 747.34375 C 519.0852 747.0222 518.875 747.31712 520.28125 746.59375 C 520.91252 745.0833 521.36992 744.23408 523.4375 743.03125 C 523.89266 742.76645 524.3105 742.3864 524.78125 742.15625 C 524.79568 742.14447 524.86379 742.13417 524.875 742.125 C 525.04379 742.05037 525.22115 741.99072 525.40625 741.96875 C 525.98359 741.90026 524.65654 742.47452 524 742.84375 C 522.02921 744.5151 519.18859 747.04452 522.65625 744.9375 L 527.40625 740.53125 C 527.36576 740.53642 527.32176 740.52608 527.28125 740.53125 C 527.00656 740.66014 526.65387 740.81447 526.5 740.875 C 526.66915 740.75289 526.82945 740.6604 527 740.5625 C 486.36628 745.73406 437.41391 748.8125 387.5 748.8125 C 323.68756 748.8125 259.9999 744.32991 213.3125 736.8125 z M 214.8125 737.96875 C 214.89591 738.04165 214.97532 738.11936 215.0625 738.1875 C 215.1036 738.2196 215.2623 738.24745 215.21875 738.21875 C 215.0866 738.1317 214.95172 738.04423 214.8125 737.96875 z M 549.46875 744.125 C 549.05099 744.57096 548.67465 744.98495 548.3125 745.375 C 548.6362 745.2248 548.92019 745.09237 549.15625 744.9375 C 549.25198 744.66967 549.35695 744.40169 549.46875 744.125 z M 201.25 744.5625 C 201.22544 744.56194 201.2851 744.71042 201.375 744.90625 C 201.4165 744.91278 201.45847 744.93097 201.5 744.9375 C 201.43592 744.82505 201.38538 744.69444 201.3125 744.59375 C 201.28452 744.55509 201.25819 744.56269 201.25 744.5625 z M 549.03125 745.21875 C 548.99859 745.23685 548.97053 745.26377 548.9375 745.28125 C 548.96842 745.27644 549.00034 745.28606 549.03125 745.28125 C 549.03773 745.26202 549.02469 745.23802 549.03125 745.21875 z M 520.21875 746.71875 C 519.56596 747.16099 519.22574 747.65701 518.78125 749.28125 C 518.87492 749.27078 518.96892 749.26049 519.0625 749.25 C 519.59249 748.17472 519.93728 747.39773 520.21875 746.71875 z M 226.65625 747.46875 C 226.63828 747.46909 226.61663 747.48458 226.59375 747.5 C 226.54799 747.53084 226.51357 747.5964 226.53125 747.625 C 226.57094 747.68922 226.61182 747.75148 226.65625 747.8125 C 226.66336 747.70849 226.68167 747.60411 226.6875 747.5 C 226.6885 747.48322 226.67422 747.46841 226.65625 747.46875 z "
       id="path4277" />
    <path
       style="fill:#d45500;fill-rule:evenodd;stroke:#000000;stroke-width:1.13667655px;stroke-linecap:butt;stroke-linejoin:miter;stroke-opacity:1;filter:url(#filter3975)"
       d="M 638.3125 590.625 L 637.25 594.0625 C 638.18798 592.28965 638.63988 591.03104 638.3125 590.625 z M 637.25 594.0625 C 636.84596 594.82617 636.34118 595.69784 635.78125 596.625 C 635.98831 596.64378 636.19896 596.66731 636.40625 596.6875 C 636.41652 596.6885 636.42725 596.6865 636.4375 596.6875 C 636.44177 596.68474 636.43323 596.65897 636.4375 596.65625 L 637.25 594.0625 z M 120.34375 595.15625 C 120.1303 595.42091 120.1799 595.99197 120.46875 596.8125 L 120.34375 595.15625 z M 120.46875 596.8125 L 121.15625 605.40625 C 121.19245 605.4073 121.21344 605.40521 121.25 605.40625 C 121.65704 605.41785 121.53586 606.16517 121.625 606.5625 C 122.2491 609.34418 121.97348 608.95833 122.25 612.21875 C 122.35555 613.46332 122.49904 614.72608 122.625 615.96875 C 122.7087 616.41533 123.25418 617.06217 122.875 617.3125 C 122.79296 617.36666 122.71386 617.37699 122.625 617.375 C 124.06466 621.03122 126.3125 625.37848 126.3125 626.6875 C 126.3125 627.27707 126.39554 627.86062 126.5 628.4375 C 127.4401 630.42788 128.38985 632.41162 129.5 634.3125 C 148.46823 656.24334 250.74206 667.34375 380.71875 667.34375 C 485.00036 667.34375 569.25506 656.62476 607.96875 640.5 C 608.40129 639.52354 608.9665 638.53862 609.65625 637.4375 C 609.98027 636.30382 610.27801 635.21401 610.875 634.09375 C 612.01717 632.18935 613.31725 630.37995 614.34375 628.40625 C 586.73234 646.68655 485.79771 660.28125 380.71875 660.28125 C 257.3606 660.28125 134.1875 643.53279 134.1875 620.46875 C 134.1875 618.61053 122.41507 602.34147 120.46875 596.8125 z M 609.59375 637.625 C 609.52711 637.75415 609.45682 637.89516 609.40625 638.03125 C 609.35535 638.16813 609.29785 638.60738 609.34375 638.46875 C 609.44114 638.17434 609.51161 637.90805 609.59375 637.625 z "
       id="path4279" />
    <path
       style="fill:#ff7f2a;fill-rule:evenodd;stroke:#000000;stroke-width:0;stroke-linecap:butt;stroke-linejoin:miter;stroke-miterlimit:4;stroke-opacity:1;stroke-dasharray:none"
       d="m 2.6617231,619.06247 c 0.017877,2.14193 0.284574,4.23268 0.8300148,6.26828 C 17.160992,676.3451 194.69844,675.88876 398.75589,621.21174 602.81332,566.5347 756.13854,478.33667 742.46928,427.32232 c -0.32037,-1.19566 -0.74784,-2.36995 -1.24537,-3.50634 l -59.00532,15.81042 c 0.53452,1.13056 0.98676,2.28759 1.30878,3.48936 11.48895,42.87731 -119.23597,110.31518 -290.74528,156.27097 -171.5093,45.95578 -318.859493,53.0279 -330.348435,10.15058 -0.322014,-1.20177 -0.508925,-2.42989 -0.611241,-3.67626 l -58.4980296,15.6745 z"
       id="path2987"
       inkscape:connector-curvature="0"
       sodipodi:nodetypes="csssccsssccc" />
    <path
       style="fill:#000000;fill-rule:evenodd;stroke:#000000;stroke-width:0;stroke-linecap:butt;stroke-linejoin:miter;stroke-miterlimit:4;stroke-opacity:1;stroke-dasharray:none;filter:url(#filter4839)"
       d="m 586.8695,401.4404 7.4597,3.98132 c 55.60559,-2.52465 103.21616,2.06503 108.07705,19.45328 0.30475,1.09017 2.52817,7.65064 2.625,8.78125 l 14.5,-3.34375 0.625,2.25 c -0.0169,-1.94301 -0.26504,-3.84095 -0.78125,-5.6875 -6.26618,-22.41524 -48.81237,-33.73017 -112.90625,-33.625 -1.01153,0.002 -18.57724,8.1834 -19.59925,8.1904 z m -5.27575,-7.6279 c -0.49256,0.021 -0.97415,0.0403 -1.46875,0.0625 l 1.46875,5.5 z M 119.2876,520.74273 C 69.219338,549.6443 29.246354,581.99685 32.21875,602.78125 l 2.5625,-2 c -0.505876,-1.02557 7.242256,2.71514 6.9375,1.625 -4.749291,-16.98904 30.927866,-48.1019 76.64744,-73.19447 z M 32.21875,602.78125 26.6875,607.125 c 2.687635,-1.66487 5.657642,-3.43022 5.5625,-4.03125 -0.0164,-0.10362 -0.01638,-0.20853 -0.03125,-0.3125 z M 26.6875,607.125 c -2.28638,1.41631 -4.37269,2.77614 -4.15625,3.25 z"
       id="path4775"
       inkscape:connector-curvature="0"
       transform="matrix(1.0503912,0,0,1.0503912,-18.757263,-26.252024)"
       sodipodi:nodetypes="ccscccscccccccccsccccccccc" />
    <path
       inkscape:connector-curvature="0"
       id="path4777"
       d="m 32.568969,605.15991 c 0.01691,1.943 1.8046,2.43765 2.147595,4.32408 8.791003,48.34943 161.797146,53.01105 361.544636,0.0986 192.74065,-51.05636 337.82376,-130.03602 324.88714,-176.31263 -0.30319,-1.08461 -0.70776,-2.14985 -1.17863,-3.18071 l -13.61888,2.76454 c 0.50589,1.02556 -1.10924,4.11823 -0.80445,5.2084 15.15657,43.21898 -186.99406,141.71134 -359.33413,176.5341 -157.95773,31.91669 -293.344206,32.44331 -307.47126,-11.9476 -0.343272,-1.07866 -3.886812,-0.16113 -3.983642,-1.29174 l -1.561233,2.64124 z"
       style="fill:#000000;fill-rule:evenodd;stroke:#000000;stroke-width:0;stroke-linecap:butt;stroke-linejoin:miter;stroke-miterlimit:4;stroke-opacity:1;stroke-dasharray:none;filter:url(#filter4843)"
       sodipodi:nodetypes="cssccccssccc"
       transform="matrix(1.0503912,0,0,1.0503912,-18.757263,-26.252024)" />
    <path
       d="m 34.051611,872.5697 a 2.0430965,1.3620644 0 1 1 -4.086193,0 2.0430965,1.3620644 0 1 1 4.086193,0 z"
       sodipodi:ry="1.3620644"
       sodipodi:rx="2.0430965"
       sodipodi:cy="872.5697"
       sodipodi:cx="32.008514"
       id="path4851"
       style="fill:#ffffff;fill-rule:evenodd;stroke:#000000;stroke-width:1px;stroke-linecap:butt;stroke-linejoin:miter;stroke-opacity:1"
       sodipodi:type="arc" />
    <path
       sodipodi:nodetypes="ccscccscccccccccsccccccccc"
       transform="matrix(1.0503912,0,0,1.0503912,-18.757263,-26.252024)"
       inkscape:connector-curvature="0"
       id="path5086"
       d="m 586.8695,401.4404 7.4597,3.98132 c 55.60559,-2.52465 103.21616,2.06503 108.07705,19.45328 0.30475,1.09017 2.52817,7.65064 2.625,8.78125 l 14.5,-3.34375 0.625,2.25 c -0.0169,-1.94301 -0.26504,-3.84095 -0.78125,-5.6875 -6.26618,-22.41524 -48.81237,-33.73017 -112.90625,-33.625 -1.01153,0.002 -18.57724,8.1834 -19.59925,8.1904 z m -5.27575,-7.6279 c -0.49256,0.021 -0.97415,0.0403 -1.46875,0.0625 l 1.46875,5.5 z M 119.2876,520.74273 C 69.219338,549.6443 29.246354,581.99685 32.21875,602.78125 l 2.5625,-2 c -0.505876,-1.02557 7.242256,2.71514 6.9375,1.625 -4.749291,-16.98904 30.927866,-48.1019 76.64744,-73.19447 z M 32.21875,602.78125 26.6875,607.125 c 2.687635,-1.66487 5.657642,-3.43022 5.5625,-4.03125 -0.0164,-0.10362 -0.01638,-0.20853 -0.03125,-0.3125 z M 26.6875,607.125 c -2.28638,1.41631 -4.37269,2.77614 -4.15625,3.25 z"
       style="fill:#000000;fill-rule:evenodd;stroke:#000000;stroke-width:0;stroke-linecap:butt;stroke-linejoin:miter;stroke-miterlimit:4;stroke-opacity:1;stroke-dasharray:none;filter:url(#filter4839)" />
    <path
       transform="matrix(1.0503912,0,0,1.0503912,-18.757263,-26.252024)"
       sodipodi:nodetypes="cssccccssccc"
       style="fill:#000000;fill-rule:evenodd;stroke:#000000;stroke-width:0;stroke-linecap:butt;stroke-linejoin:miter;stroke-miterlimit:4;stroke-opacity:1;stroke-dasharray:none;filter:url(#filter4843)"
       d="m 32.568969,605.15991 c 0.01691,1.943 1.8046,2.43765 2.147595,4.32408 8.791003,48.34943 161.797146,53.01105 361.544636,0.0986 192.74065,-51.05636 337.82376,-130.03602 324.88714,-176.31263 -0.30319,-1.08461 -0.70776,-2.14985 -1.17863,-3.18071 l -13.61888,2.76454 c 0.50589,1.02556 -1.10924,4.11823 -0.80445,5.2084 15.15657,43.21898 -186.99406,141.71134 -359.33413,176.5341 -157.95773,31.91669 -293.344206,32.44331 -307.47126,-11.9476 -0.343272,-1.07866 -3.886812,-0.16113 -3.983642,-1.29174 l -1.561233,2.64124 z"
       id="path5088"
       inkscape:connector-curvature="0" />
    <path
       sodipodi:type="arc"
       style="fill:#ffffff;fill-rule:evenodd;stroke:#000000;stroke-width:1px;stroke-linecap:butt;stroke-linejoin:miter;stroke-opacity:1"
       id="path5139"
       sodipodi:cx="138.44922"
       sodipodi:cy="973.14514"
       sodipodi:rx="1.2039062"
       sodipodi:ry="1.6854687"
       d="m 139.65312,973.14514 a 1.2039062,1.6854687 0 1 1 -2.40781,0 1.2039062,1.6854687 0 1 1 2.40781,0 z" />
  </g>
</svg>
